Anton-italic.ufo
<glyph name="exclam" format="1">
  <advance width="469"/>
  <unicode hex="0021"/>
  <outline>
    <contour>
      <point x="-102" y="1" type="line"/>
      <point x="256" y="1" type="line"/>
      <point x="303" y="299" type="line"/>
      <point x="-55" y="299" type="line"/>
    </contour>
    <contour>
      <point x="43" y="479" type="line"/>
      <point x="261" y="479" type="line"/>
      <point x="533" y="1760" type="line"/>
      <point x="175" y="1760" type="line"/>
    </contour>
  </outline>
</glyph>
<glyph name="dollar" format="1">
  <advance width="946"/>
  <unicode hex="0024"/>
  <outline>
    <contour>
      <point x="221" y="-113" type="line"/>
      <point x="394" y="-113" type="line"/>
      <point x="418" y="34" type="line"/>
      <point x="624" y="57"/>
      <point x="797" y="193"/>
      <point x="832" y="413" type="curve" smooth="yes"/>
      <point x="854" y="559"/>
      <point x="804" y="677"/>
      <point x="735" y="758" type="curve" smooth="yes"/>
      <point x="498" y="1034" type="line" smooth="yes"/>
      <point x="443" y="1099"/>
      <point x="417" y="1149"/>
      <point x="423" y="1182" type="curve" smooth="yes"/>
      <point x="430" y="1228"/>
      <point x="472" y="1259"/>
      <point x="518" y="1259" type="curve" smooth="yes"/>
      <point x="558" y="1259"/>
      <point x="593" y="1227"/>
      <point x="590" y="1190" type="curve"/>
      <point x="579" y="1105" type="line"/>
      <point x="936" y="1105" type="line"/>
      <point x="977" y="1366"/>
      <point x="882" y="1532"/>
      <point x="659" y="1561" type="curve"/>
      <point x="677" y="1679" type="line"/>
      <point x="504" y="1679" type="line"/>
      <point x="485" y="1558" type="line"/>
      <point x="299" y="1526"/>
      <point x="127" y="1392"/>
      <point x="95" y="1192" type="curve" smooth="yes"/>
      <point x="76" y="1069"/>
      <point x="111" y="954"/>
      <point x="199" y="849" type="curve" smooth="yes"/>
      <point x="442" y="560" type="line"/>
      <point x="475" y="514"/>
      <point x="491" y="479"/>
      <point x="487" y="456" type="curve" smooth="yes"/>
      <point x="478" y="397"/>
      <point x="441" y="347"/>
      <point x="385" y="347" type="curve" smooth="yes"/>
      <point x="322" y="347"/>
      <point x="300" y="398"/>
      <point x="316" y="501" type="curve" smooth="yes"/>
      <point x="323" y="543" type="line"/>
      <point x="-25" y="543" type="line"/>
      <point x="-34" y="488" type="line" smooth="yes"/>
      <point x="-78" y="208"/>
      <point x="-1" y="65"/>
      <point x="245" y="36" type="curve"/>
    </contour>
  </outline>
</glyph>
<glyph name="percent" format="1">
  <advance width="2164"/>
  <unicode hex="0025"/>
  <outline>
    <contour>
      <point x="399" y="790" type="curve" smooth="yes"/>
      <point x="347" y="790"/>
      <point x="312" y="833"/>
      <point x="321" y="889" type="curve" smooth="yes"/>
      <point x="398" y="1375" type="line" smooth="yes"/>
      <point x="410" y="1452"/>
      <point x="433" y="1502"/>
      <point x="511" y="1502" type="curve" smooth="yes"/>
      <point x="589" y="1502"/>
      <point x="596" y="1453"/>
      <point x="584" y="1375" type="curve" smooth="yes"/>
      <point x="507" y="889" type="line" smooth="yes"/>
      <point x="498" y="833"/>
      <point x="451" y="790"/>
    </contour>
    <contour>
      <point x="358" y="528" type="curve" smooth="yes"/>
      <point x="607" y="528"/>
      <point x="775" y="693"/>
      <point x="815" y="948" type="curve" smooth="yes"/>
      <point x="873" y="1311" type="line" smooth="yes"/>
      <point x="915" y="1580"/>
      <point x="810" y="1729"/>
      <point x="547" y="1729" type="curve" smooth="yes"/>
      <point x="284" y="1729"/>
      <point x="132" y="1580"/>
      <point x="90" y="1311" type="curve" smooth="yes"/>
      <point x="32" y="948" type="line" smooth="yes"/>
      <point x="-8" y="693"/>
      <point x="110" y="528"/>
    </contour>
    <contour>
      <point x="1610" y="244" type="curve" smooth="yes"/>
      <point x="1558" y="244"/>
      <point x="1523" y="287"/>
      <point x="1532" y="343" type="curve" smooth="yes"/>
      <point x="1609" y="829" type="line" smooth="yes"/>
      <point x="1621" y="906"/>
      <point x="1644" y="956"/>
      <point x="1722" y="956" type="curve" smooth="yes"/>
      <point x="1800" y="956"/>
      <point x="1807" y="907"/>
      <point x="1795" y="829" type="curve" smooth="yes"/>
      <point x="1718" y="343" type="line" smooth="yes"/>
      <point x="1709" y="287"/>
      <point x="1662" y="244"/>
    </contour>
    <contour>
      <point x="1569" y="-18" type="curve" smooth="yes"/>
      <point x="1818" y="-18"/>
      <point x="1986" y="147"/>
      <point x="2026" y="402" type="curve" smooth="yes"/>
      <point x="2084" y="765" type="line" smooth="yes"/>
      <point x="2126" y="1034"/>
      <point x="2021" y="1183"/>
      <point x="1758" y="1183" type="curve" smooth="yes"/>
      <point x="1495" y="1183"/>
      <point x="1343" y="1034"/>
      <point x="1301" y="765" type="curve" smooth="yes"/>
      <point x="1243" y="402" type="line" smooth="yes"/>
      <point x="1203" y="147"/>
      <point x="1321" y="-18"/>
    </contour>
    <contour>
      <point x="501" y="0" type="line"/>
      <point x="824" y="0" type="line"/>
      <point x="1644" y="1767" type="line"/>
      <point x="1320" y="1767" type="line"/>
    </contour>
  </outline>
</glyph>
<glyph name="ampersand" format="1">
  <advance width="1035"/>
  <unicode hex="0026"/>
  <outline>
    <contour>
      <point x="223" y="-21" type="curve" smooth="yes"/>
      <point x="333" y="-21"/>
      <point x="434" y="32"/>
      <point x="496" y="97" type="curve"/>
      <point x="518" y="0" type="line"/>
      <point x="858" y="0" type="line"/>
      <point x="747" y="432" type="line"/>
      <point x="823" y="578"/>
      <point x="905" y="682"/>
      <point x="993" y="744" type="curve"/>
      <point x="888" y="961" type="line"/>
      <point x="804" y="906"/>
      <point x="734" y="827"/>
      <point x="679" y="726" type="curve"/>
      <point x="639" y="875" type="line"/>
      <point x="817" y="1000"/>
      <point x="915" y="1133"/>
      <point x="937" y="1273" type="curve" smooth="yes"/>
      <point x="968" y="1472"/>
      <point x="837" y="1582"/>
      <point x="641" y="1582" type="curve" smooth="yes"/>
      <point x="442" y="1582"/>
      <point x="275" y="1464"/>
      <point x="243" y="1262" type="curve" smooth="yes"/>
      <point x="224" y="1143"/>
      <point x="258" y="1010"/>
      <point x="289" y="921" type="curve"/>
      <point x="111" y="804"/>
      <point x="10" y="661"/>
      <point x="-34" y="386" type="curve" smooth="yes"/>
      <point x="-70" y="158"/>
      <point x="4" y="-21"/>
    </contour>
    <contour>
      <point x="320" y="235" type="curve" smooth="yes"/>
      <point x="249" y="235"/>
      <point x="266" y="341"/>
      <point x="276" y="413" type="curve" smooth="yes"/>
      <point x="279" y="423" type="line" smooth="yes"/>
      <point x="289" y="488"/>
      <point x="316" y="572"/>
      <point x="345" y="606" type="curve"/>
      <point x="360" y="625" type="line"/>
      <point x="436" y="334" type="line"/>
      <point x="418" y="289"/>
      <point x="377" y="235"/>
    </contour>
    <contour>
      <point x="586" y="1110" type="line"/>
      <point x="568" y="1183"/>
      <point x="563" y="1237"/>
      <point x="568" y="1273" type="curve" smooth="yes"/>
      <point x="573" y="1307"/>
      <point x="598" y="1336"/>
      <point x="632" y="1336" type="curve" smooth="yes"/>
      <point x="671" y="1336"/>
      <point x="688" y="1315"/>
      <point x="681" y="1273" type="curve" smooth="yes"/>
      <point x="672" y="1219"/>
      <point x="635" y="1155"/>
      <point x="605" y="1128" type="curve" smooth="yes"/>
    </contour>
  </outline>
</glyph>
<glyph name="quotesingle" format="1">
  <advance width="438"/>
  <unicode hex="0027"/>
  <outline>
    <contour>
      <point x="161" y="1760" type="line"/>
      <point x="161" y="1124" type="line"/>
      <point x="337" y="1124" type="line"/>
      <point x="513" y="1760" type="line"/>
    </contour>
  </outline>
</glyph>
<glyph name="parenleft" format="1">
  <advance width="596"/>
  <unicode hex="0028"/>
  <outline>
    <contour>
      <point x="334" y="1751"/>
      <point x="135" y="1546"/>
      <point x="78" y="1183" type="curve" smooth="yes"/>
      <point x="-20" y="562" type="line" smooth="yes"/>
      <point x="-73" y="227"/>
      <point x="85" y="-4"/>
      <point x="400" y="-17" type="curve"/>
      <point x="445" y="268" type="line"/>
      <point x="369" y="289"/>
      <point x="319" y="350"/>
      <point x="334" y="450" type="curve" smooth="yes"/>
      <point x="468" y="1297" type="line" smooth="yes"/>
      <point x="487" y="1415"/>
      <point x="534" y="1476"/>
      <point x="638" y="1494" type="curve"/>
      <point x="680" y="1761" type="line"/>
    </contour>
  </outline>
</glyph>
<glyph name="parenright" format="1">
  <advance width="596"/>
  <unicode hex="0029"/>
  <outline>
    <contour>
      <point x="-124" y="-17" type="line"/>
      <point x="193" y="-4"/>
      <point x="424" y="225"/>
      <point x="478" y="562" type="curve" smooth="yes"/>
      <point x="576" y="1183" type="line" smooth="yes"/>
      <point x="633" y="1546"/>
      <point x="500" y="1751"/>
      <point x="156" y="1761" type="curve"/>
      <point x="114" y="1494" type="line"/>
      <point x="212" y="1476"/>
      <point x="241" y="1415"/>
      <point x="222" y="1297" type="curve" smooth="yes"/>
      <point x="88" y="450" type="line" smooth="yes"/>
      <point x="73" y="350"/>
      <point x="3" y="289"/>
      <point x="-79" y="268" type="curve"/>
    </contour>
  </outline>
</glyph>
<glyph name="plus" format="1">
  <advance width="728"/>
  <unicode hex="002B"/>
  <outline>
    <contour>
      <point x="265" y="301" type="line"/>
      <point x="497" y="301" type="line"/>
      <point x="531" y="509" type="line"/>
      <point x="739" y="509" type="line"/>
      <point x="775" y="741" type="line"/>
      <point x="567" y="741" type="line"/>
      <point x="600" y="949" type="line"/>
      <point x="368" y="949" type="line"/>
      <point x="335" y="741" type="line"/>
      <point x="127" y="741" type="line"/>
      <point x="91" y="509" type="line"/>
      <point x="299" y="509" type="line"/>
    </contour>
  </outline>
</glyph>
<glyph name="comma" format="1">
  <advance width="484"/>
  <unicode hex="002C"/>
  <outline>
    <contour>
      <point x="175" y="299" type="line"/>
      <point x="128" y="1" type="line"/>
      <point x="255" y="1" type="line"/>
      <point x="151" y="-235" type="line"/>
      <point x="362" y="-235" type="line"/>
      <point x="504" y="10" type="line"/>
      <point x="549" y="299" type="line"/>
    </contour>
    <contour>
      <point x="340" y="131" type="move" name="_mid"/>
    </contour>
  </outline>
</glyph>
<glyph name="period" format="1">
  <advance width="468"/>
  <unicode hex="002E"/>
  <outline>
    <contour>
      <point x="128" y="1" type="line"/>
      <point x="486" y="1" type="line"/>
      <point x="533" y="299" type="line"/>
      <point x="175" y="299" type="line"/>
    </contour>
  </outline>
</glyph>
<glyph name="one" format="1">
  <advance width="677"/>
  <unicode hex="0031"/>
  <outline>
    <contour>
      <point x="85" y="0" type="line"/>
      <point x="458" y="0" type="line"/>
      <point x="735" y="1761" type="line"/>
      <point x="452" y="1761" type="line"/>
      <point x="375" y="1629"/>
      <point x="218" y="1556"/>
      <point x="109" y="1541" type="curve"/>
      <point x="65" y="1260" type="line"/>
      <point x="139" y="1260"/>
      <point x="241" y="1299"/>
      <point x="298" y="1356" type="curve"/>
    </contour>
  </outline>
</glyph>
<glyph name="three" format="1">
  <advance width="1012"/>
  <unicode hex="0033"/>
  <outline>
    <contour>
      <point x="316" y="1763"/>
      <point x="147" y="1618"/>
      <point x="95" y="1295" type="curve" smooth="yes"/>
      <point x="86" y="1233" type="line"/>
      <point x="450" y="1233" type="line"/>
      <point x="458" y="1286" type="line"/>
      <point x="484" y="1369"/>
      <point x="484" y="1440"/>
      <point x="578" y="1440" type="curve" smooth="yes"/>
      <point x="635" y="1440"/>
      <point x="656" y="1391"/>
      <point x="641" y="1291" type="curve" smooth="yes"/>
      <point x="620" y="1164"/>
      <point x="546" y="1115"/>
      <point x="425" y="1115" type="curve"/>
      <point x="376" y="799" type="line"/>
      <point x="384" y="800"/>
      <point x="395" y="801"/>
      <point x="410" y="801" type="curve" smooth="yes"/>
      <point x="528" y="801"/>
      <point x="544" y="695"/>
      <point x="524" y="574" type="curve" smooth="yes"/>
      <point x="518" y="530" type="line" smooth="yes"/>
      <point x="500" y="418"/>
      <point x="486" y="306"/>
      <point x="391" y="306" type="curve" smooth="yes"/>
      <point x="304" y="306"/>
      <point x="302" y="380"/>
      <point x="317" y="473" type="curve" smooth="yes"/>
      <point x="345" y="658" type="line"/>
      <point x="-16" y="658" type="line"/>
      <point x="-44" y="474" type="line" smooth="yes"/>
      <point x="-97" y="143"/>
      <point x="12" y="-20"/>
      <point x="323" y="-20" type="curve" smooth="yes"/>
      <point x="664" y="-20"/>
      <point x="831" y="178"/>
      <point x="887" y="530" type="curve" smooth="yes"/>
      <point x="924" y="766"/>
      <point x="924" y="889"/>
      <point x="786" y="962" type="curve"/>
      <point x="919" y="1007"/>
      <point x="976" y="1122"/>
      <point x="1004" y="1295" type="curve" smooth="yes"/>
      <point x="1053" y="1609"/>
      <point x="927" y="1763"/>
      <point x="627" y="1763" type="curve" smooth="yes"/>
    </contour>
  </outline>
</glyph>
<glyph name="four" format="1">
  <advance width="1012"/>
  <unicode hex="0034"/>
  <outline>
    <contour>
      <point x="471" y="1761" type="line"/>
      <point x="-52" y="553" type="line"/>
      <point x="-96" y="278" type="line"/>
      <point x="426" y="278" type="line"/>
      <point x="382" y="-1" type="line"/>
      <point x="741" y="-1" type="line"/>
      <point x="785" y="278" type="line"/>
      <point x="879" y="278" type="line"/>
      <point x="925" y="572" type="line"/>
      <point x="831" y="572" type="line"/>
      <point x="1019" y="1761" type="line"/>
    </contour>
    <contour>
      <point x="472" y="572" type="line"/>
      <point x="264" y="572" type="line"/>
      <point x="612" y="1459" type="line"/>
    </contour>
  </outline>
</glyph>
<glyph name="nine" format="1">
  <advance width="1033"/>
  <unicode hex="0039"/>
  <outline>
    <contour>
      <point x="770" y="-16"/>
      <point x="864" y="248"/>
      <point x="941" y="735" type="curve" smooth="yes"/>
      <point x="1016" y="1211" type="line" smooth="yes"/>
      <point x="1075" y="1588"/>
      <point x="997" y="1776"/>
      <point x="630" y="1776" type="curve" smooth="yes"/>
      <point x="286" y="1776"/>
      <point x="134" y="1543"/>
      <point x="79" y="1191" type="curve" smooth="yes"/>
      <point x="24" y="844"/>
      <point x="68" y="668"/>
      <point x="359" y="668" type="curve" smooth="yes"/>
      <point x="455" y="668"/>
      <point x="530" y="710"/>
      <point x="573" y="772" type="curve"/>
      <point x="517" y="419" type="line" smooth="yes"/>
      <point x="504" y="338"/>
      <point x="471" y="293"/>
      <point x="392" y="293" type="curve" smooth="yes"/>
      <point x="307" y="293"/>
      <point x="320" y="395"/>
      <point x="334" y="483" type="curve" smooth="yes"/>
      <point x="340" y="519" type="line"/>
      <point x="1" y="519" type="line"/>
      <point x="-30" y="329" type="line" smooth="yes"/>
      <point x="-66" y="100"/>
      <point x="115" y="-16"/>
      <point x="337" y="-16" type="curve" smooth="yes"/>
    </contour>
    <contour>
      <point x="458" y="979"/>
      <point x="439" y="1027"/>
      <point x="454" y="1123" type="curve" smooth="yes"/>
      <point x="476" y="1265" type="line" smooth="yes"/>
      <point x="494" y="1374"/>
      <point x="509" y="1452"/>
      <point x="592" y="1452" type="curve" smooth="yes"/>
      <point x="651" y="1452"/>
      <point x="673" y="1409"/>
      <point x="659" y="1322" type="curve" smooth="yes"/>
      <point x="625" y="1104" type="line" smooth="yes"/>
      <point x="612" y="1021"/>
      <point x="574" y="979"/>
      <point x="512" y="979" type="curve" smooth="yes"/>
    </contour>
  </outline>
</glyph>
<glyph name="colon" format="1">
  <advance width="495"/>
  <unicode hex="003A"/>
  <outline>
    <contour>
      <point x="25" y="237" type="line"/>
      <point x="383" y="237" type="line"/>
      <point x="429" y="535" type="line"/>
      <point x="71" y="535" type="line"/>
    </contour>
    <contour>
      <point x="141" y="976" type="line"/>
      <point x="499" y="976" type="line"/>
      <point x="546" y="1274" type="line"/>
      <point x="188" y="1274" type="line"/>
    </contour>
  </outline>
</glyph>
<glyph name="semicolon" format="1">
  <advance width="502"/>
  <unicode hex="003B"/>
  <outline>
    <contour>
      <point x="69" y="534" type="line"/>
      <point x="23" y="236" type="line"/>
      <point x="150" y="236" type="line"/>
      <point x="47" y="0" type="line"/>
      <point x="258" y="0" type="line"/>
      <point x="398" y="245" type="line"/>
      <point x="443" y="534" type="line"/>
    </contour>
    <contour>
      <point x="186" y="1274" type="line"/>
      <point x="139" y="976" type="line"/>
      <point x="497" y="976" type="line"/>
      <point x="544" y="1274" type="line"/>
    </contour>
  </outline>
</glyph>
<glyph name="less" format="1">
  <advance width="658"/>
  <unicode hex="003C"/>
  <outline>
    <contour>
      <point x="552" y="200" type="line"/>
      <point x="608" y="558" type="line"/>
      <point x="296" y="749" type="line"/>
      <point x="668" y="941" type="line"/>
      <point x="725" y="1300" type="line"/>
      <point x="101" y="959" type="line"/>
      <point x="36" y="545" type="line"/>
    </contour>
  </outline>
</glyph>
<glyph name="equal" format="1">
  <advance width="637"/>
  <unicode hex="003D"/>
  <outline>
    <contour>
      <point x="85" y="509" type="line"/>
      <point x="599" y="509" type="line"/>
      <point x="636" y="741" type="line"/>
      <point x="122" y="741" type="line"/>
    </contour>
    <contour>
      <point x="145" y="892" type="line"/>
      <point x="659" y="892" type="line"/>
      <point x="695" y="1116" type="line"/>
      <point x="181" y="1116" type="line"/>
    </contour>
  </outline>
</glyph>
<glyph name="greater" format="1">
  <advance width="658"/>
  <unicode hex="003E"/>
  <outline>
    <contour>
      <point x="0" y="200" type="line"/>
      <point x="624" y="545" type="line"/>
      <point x="689" y="959" type="line"/>
      <point x="173" y="1300" type="line"/>
      <point x="116" y="941" type="line"/>
      <point x="428" y="749" type="line"/>
      <point x="56" y="558" type="line"/>
    </contour>
  </outline>
</glyph>
<glyph name="at" format="1">
  <advance width="1770"/>
  <unicode hex="0040"/>
  <outline>
    <contour>
      <point x="570" y="1776"/>
      <point x="138" y="1480"/>
      <point x="17" y="717" type="curve" smooth="yes"/>
      <point x="-83" y="86"/>
      <point x="263" y="-158"/>
      <point x="734" y="-158" type="curve" smooth="yes"/>
      <point x="822" y="-158"/>
      <point x="928" y="-148"/>
      <point x="1051" y="-127" type="curve"/>
      <point x="1055" y="99" type="line"/>
      <point x="947" y="85"/>
      <point x="858" y="78"/>
      <point x="787" y="78" type="curve" smooth="yes"/>
      <point x="433" y="78"/>
      <point x="237" y="298"/>
      <point x="306" y="734" type="curve" smooth="yes"/>
      <point x="392" y="1282"/>
      <point x="644" y="1536"/>
      <point x="1043" y="1536" type="curve" smooth="yes"/>
      <point x="1381" y="1536"/>
      <point x="1505" y="1264"/>
      <point x="1449" y="907" type="curve" smooth="yes"/>
      <point x="1426" y="761"/>
      <point x="1384" y="505"/>
      <point x="1294" y="505" type="curve" smooth="yes"/>
      <point x="1245" y="505"/>
      <point x="1198" y="582"/>
      <point x="1210" y="650" type="curve" smooth="yes"/>
      <point x="1310" y="1290" type="line"/>
      <point x="1084" y="1290" type="line"/>
      <point x="1024" y="1159" type="line"/>
      <point x="988" y="1243"/>
      <point x="938" y="1299"/>
      <point x="842" y="1299" type="curve" smooth="yes"/>
      <point x="623" y="1299"/>
      <point x="516" y="1048"/>
      <point x="467" y="744" type="curve" smooth="yes"/>
      <point x="430" y="502"/>
      <point x="487" y="285"/>
      <point x="665" y="285" type="curve" smooth="yes"/>
      <point x="791" y="285"/>
      <point x="873" y="350"/>
      <point x="924" y="491" type="curve"/>
      <point x="951" y="367"/>
      <point x="1017" y="277"/>
      <point x="1213" y="277" type="curve" smooth="yes"/>
      <point x="1486" y="277"/>
      <point x="1629" y="493"/>
      <point x="1691" y="882" type="curve" smooth="yes"/>
      <point x="1779" y="1440"/>
      <point x="1564" y="1776"/>
      <point x="1098" y="1776" type="curve" smooth="yes"/>
    </contour>
    <contour>
      <point x="930" y="682" type="line" smooth="yes"/>
      <point x="918" y="609"/>
      <point x="888" y="532"/>
      <point x="827" y="532" type="curve" smooth="yes"/>
      <point x="762" y="532"/>
      <point x="760" y="638"/>
      <point x="776" y="733" type="curve" smooth="yes"/>
      <point x="805" y="924"/>
      <point x="833" y="1074"/>
      <point x="991" y="1074" type="curve"/>
    </contour>
  </outline>
</glyph>
<glyph name="C" format="1">
  <advance width="971"/>
  <unicode hex="0043"/>
  <outline>
    <contour>
      <point x="325" y="-16" type="curve" smooth="yes"/>
      <point x="605" y="-16"/>
      <point x="790" y="116"/>
      <point x="839" y="425" type="curve" smooth="yes"/>
      <point x="891" y="758" type="line"/>
      <point x="537" y="758" type="line"/>
      <point x="487" y="441" type="line" smooth="yes"/>
      <point x="475" y="362"/>
      <point x="445" y="308"/>
      <point x="385" y="308" type="curve" smooth="yes"/>
      <point x="331" y="308"/>
      <point x="307" y="344"/>
      <point x="322" y="441" type="curve" smooth="yes"/>
      <point x="461" y="1322" type="line" smooth="yes"/>
      <point x="474" y="1400"/>
      <point x="500" y="1452"/>
      <point x="565" y="1452" type="curve" smooth="yes"/>
      <point x="621" y="1452"/>
      <point x="643" y="1423"/>
      <point x="626" y="1318" type="curve" smooth="yes"/>
      <point x="585" y="1058" type="line"/>
      <point x="935" y="1058" type="line"/>
      <point x="983" y="1362" type="line" smooth="yes"/>
      <point x="1026" y="1639"/>
      <point x="866" y="1776"/>
      <point x="616" y="1776" type="curve" smooth="yes"/>
      <point x="311" y="1776"/>
      <point x="154" y="1589"/>
      <point x="101" y="1248" type="curve" smooth="yes"/>
      <point x="-28" y="436" type="line" smooth="yes"/>
      <point x="-73" y="151"/>
      <point x="70" y="-16"/>
    </contour>
    <contour>
      <point x="602" y="1760" type="move" name="top"/>
    </contour>
    <contour>
      <point x="329" y="0" type="move" name="bot"/>
    </contour>
  </outline>
</glyph>
<glyph name="D" format="1">
  <advance width="1010.028"/>
  <unicode hex="0044"/>
  <outline>
    <contour>
      <point x="323" y="311" type="line"/>
      <point x="503" y="1452" type="line"/>
      <point x="542" y="1452" type="line" smooth="yes"/>
      <point x="638" y="1452"/>
      <point x="657" y="1430"/>
      <point x="639" y="1313" type="curve" smooth="yes"/>
      <point x="497" y="405" type="line" smooth="yes"/>
      <point x="486" y="342"/>
      <point x="447" y="311"/>
      <point x="384" y="311" type="curve" smooth="yes"/>
    </contour>
    <contour>
      <point x="-79" y="0" type="line"/>
      <point x="394" y="0" type="line" smooth="yes"/>
      <point x="686" y="0"/>
      <point x="820" y="189"/>
      <point x="871" y="522" type="curve" smooth="yes"/>
      <point x="997" y="1346" type="line" smooth="yes"/>
      <point x="1038" y="1616"/>
      <point x="936" y="1760"/>
      <point x="683" y="1760" type="curve" smooth="yes"/>
      <point x="198" y="1760" type="line"/>
    </contour>
    <contour>
      <point x="624" y="1760" type="move" name="top"/>
    </contour>
    <contour>
      <point x="259" y="923" type="move" name="mid"/>
    </contour>
  </outline>
</glyph>
<glyph name="E" format="1">
  <advance width="843"/>
  <unicode hex="0045"/>
  <outline>
    <contour>
      <point x="-79" y="0" type="line"/>
      <point x="648" y="0" type="line"/>
      <point x="702" y="343" type="line"/>
      <point x="333" y="343" type="line"/>
      <point x="396" y="746" type="line"/>
      <point x="728" y="746" type="line"/>
      <point x="780" y="1077" type="line"/>
      <point x="448" y="1077" type="line"/>
      <point x="502" y="1420" type="line"/>
      <point x="848" y="1420" type="line"/>
      <point x="902" y="1760" type="line"/>
      <point x="198" y="1760" type="line"/>
    </contour>
    <contour>
      <point x="564" y="1760" type="move" name="top"/>
    </contour>
    <contour>
      <point x="337" y="0" type="move" name="ogonek"/>
    </contour>
  </outline>
</glyph>
<glyph name="F" format="1">
  <advance width="817"/>
  <unicode hex="0046"/>
  <outline>
    <contour>
      <point x="198" y="1760" type="line"/>
      <point x="-79" y="0" type="line"/>
      <point x="275" y="0" type="line"/>
      <point x="400" y="798" type="line"/>
      <point x="732" y="798" type="line"/>
      <point x="786" y="1137" type="line"/>
      <point x="454" y="1137" type="line"/>
      <point x="498" y="1417" type="line"/>
      <point x="848" y="1417" type="line"/>
      <point x="902" y="1760" type="line"/>
    </contour>
    <contour>
      <point x="572" y="1760" type="move" name="top"/>
    </contour>
  </outline>
</glyph>
<glyph name="H" format="1">
  <advance width="1022"/>
  <unicode hex="0048"/>
  <outline>
    <contour>
      <point x="714" y="1760" type="line"/>
      <point x="615" y="1131" type="line"/>
      <point x="449" y="1131" type="line"/>
      <point x="548" y="1760" type="line"/>
      <point x="198" y="1760" type="line"/>
      <point x="-79" y="0" type="line"/>
      <point x="271" y="0" type="line"/>
      <point x="396" y="798" type="line"/>
      <point x="562" y="798" type="line"/>
      <point x="437" y="0" type="line"/>
      <point x="787" y="0" type="line"/>
      <point x="1064" y="1760" type="line"/>
    </contour>
    <contour>
      <point x="636" y="1760" type="move" name="top"/>
    </contour>
  </outline>
</glyph>
<glyph name="I" format="1">
  <advance width="464"/>
  <unicode hex="0049"/>
  <outline>
    <contour>
      <point x="-95" y="0" type="line"/>
      <point x="245" y="0" type="line"/>
      <point x="522" y="1760" type="line"/>
      <point x="182" y="1760" type="line"/>
    </contour>
    <contour>
      <point x="365" y="1760" type="move" name="top"/>
    </contour>
    <contour>
      <point x="69" y="0" type="move" name="ogonek"/>
    </contour>
  </outline>
</glyph>
<glyph name="J" format="1">
  <advance width="955"/>
  <unicode hex="004A"/>
  <outline>
    <contour>
      <point x="663" y="1760" type="line"/>
      <point x="450" y="405" type="line" smooth="yes"/>
      <point x="440" y="344"/>
      <point x="408" y="308"/>
      <point x="355" y="308" type="curve" smooth="yes"/>
      <point x="300" y="308"/>
      <point x="284" y="348"/>
      <point x="293" y="410" type="curve" smooth="yes"/>
      <point x="360" y="830" type="line"/>
      <point x="12" y="830" type="line"/>
      <point x="-58" y="389" type="line" smooth="yes"/>
      <point x="-100" y="124"/>
      <point x="69" y="-16"/>
      <point x="308" y="-16" type="curve" smooth="yes"/>
      <point x="559" y="-16"/>
      <point x="766" y="160"/>
      <point x="810" y="440" type="curve" smooth="yes"/>
      <point x="1018" y="1760" type="line"/>
    </contour>
    <contour>
      <point x="830" y="1760" type="move" name="top"/>
    </contour>
  </outline>
</glyph>
<glyph name="K" format="1">
  <advance width="967"/>
  <unicode hex="004B"/>
  <outline>
    <contour>
      <point x="-79" y="0" type="line"/>
      <point x="271" y="0" type="line"/>
      <point x="405" y="852" type="line"/>
      <point x="463" y="0" type="line"/>
      <point x="828" y="0" type="line"/>
      <point x="740" y="954" type="line"/>
      <point x="1064" y="1760" type="line"/>
      <point x="710" y="1760" type="line"/>
      <point x="434" y="1055" type="line"/>
      <point x="546" y="1760" type="line"/>
      <point x="198" y="1760" type="line"/>
    </contour>
    <contour>
      <point x="631" y="1760" type="move" name="top"/>
    </contour>
    <contour>
      <point x="366" y="0" type="move" name="bot"/>
    </contour>
  </outline>
</glyph>
<glyph name="L" format="1">
  <advance width="814"/>
  <unicode hex="004C"/>
  <outline>
    <contour>
      <point x="-79" y="0" type="line"/>
      <point x="635" y="0" type="line"/>
      <point x="682" y="300" type="line"/>
      <point x="320" y="300" type="line"/>
      <point x="550" y="1760" type="line"/>
      <point x="198" y="1760" type="line"/>
    </contour>
    <contour>
      <point x="621" y="1760" type="move" name="top"/>
    </contour>
    <contour>
      <point x="718" y="1011" type="move" name="mid"/>
    </contour>
    <contour>
      <point x="276" y="0" type="move" name="bot"/>
    </contour>
  </outline>
</glyph>
<glyph name="M" format="1">
  <advance width="1528"/>
  <unicode hex="004D"/>
  <outline>
    <contour>
      <point x="1029" y="1760" type="line"/>
      <point x="713" y="687" type="line"/>
      <point x="734" y="1760" type="line"/>
      <point x="198" y="1760" type="line"/>
      <point x="-79" y="0" type="line"/>
      <point x="239" y="0" type="line"/>
      <point x="439" y="1268" type="line"/>
      <point x="453" y="0" type="line"/>
      <point x="769" y="0" type="line"/>
      <point x="1171" y="1268" type="line"/>
      <point x="971" y="0" type="line"/>
      <point x="1293" y="0" type="line"/>
      <point x="1570" y="1760" type="line"/>
    </contour>
    <contour>
      <point x="888" y="1760" type="move" name="top"/>
    </contour>
  </outline>
</glyph>
<glyph name="N" format="1">
  <advance width="1020"/>
  <unicode hex="004E"/>
  <outline>
    <contour>
      <point x="722" y="1760" type="line"/>
      <point x="589" y="917" type="line"/>
      <point x="560" y="1760" type="line"/>
      <point x="198" y="1760" type="line"/>
      <point x="-79" y="0" type="line"/>
      <point x="265" y="0" type="line"/>
      <point x="403" y="880" type="line"/>
      <point x="441" y="0" type="line"/>
      <point x="785" y="0" type="line"/>
      <point x="1062" y="1760" type="line"/>
    </contour>
    <contour>
      <point x="651" y="1760" type="move" name="top"/>
    </contour>
    <contour>
      <point x="346" y="0" type="move" name="bot"/>
    </contour>
  </outline>
</glyph>
<glyph name="P" format="1">
  <advance width="967"/>
  <unicode hex="0050"/>
  <outline>
    <contour>
      <point x="-79" y="0" type="line"/>
      <point x="267" y="0" type="line"/>
      <point x="376" y="697" type="line"/>
      <point x="519" y="697" type="line" smooth="yes"/>
      <point x="811" y="697"/>
      <point x="919" y="903"/>
      <point x="969" y="1224" type="curve" smooth="yes"/>
      <point x="1022" y="1556"/>
      <point x="955" y="1760"/>
      <point x="663" y="1760" type="curve" smooth="yes"/>
      <point x="198" y="1760" type="line"/>
    </contour>
    <contour>
      <point x="426" y="1013" type="line"/>
      <point x="494" y="1439" type="line"/>
      <point x="533" y="1439" type="line" smooth="yes"/>
      <point x="639" y="1439"/>
      <point x="643" y="1363"/>
      <point x="622" y="1230" type="curve" smooth="yes"/>
      <point x="599" y="1087"/>
      <point x="576" y="1013"/>
      <point x="446" y="1013" type="curve" smooth="yes"/>
    </contour>
    <contour>
      <point x="603" y="1760" type="move" name="top"/>
    </contour>
  </outline>
</glyph>
<glyph name="Q" format="1">
  <advance width="1011"/>
  <unicode hex="0051"/>
  <outline>
    <contour>
      <point x="327" y="1776"/>
      <point x="148" y="1616"/>
      <point x="101" y="1313" type="curve" smooth="yes"/>
      <point x="-33" y="462" type="line" smooth="yes"/>
      <point x="-83" y="150"/>
      <point x="39" y="-16"/>
      <point x="325" y="-16" type="curve" smooth="yes"/>
      <point x="338" y="-16"/>
      <point x="370" y="-10"/>
      <point x="416" y="-3" type="curve"/>
      <point x="666" y="-187" type="line"/>
      <point x="819" y="23" type="line"/>
      <point x="683" y="119" type="line"/>
      <point x="761" y="202"/>
      <point x="812" y="318"/>
      <point x="835" y="462" type="curve" smooth="yes"/>
      <point x="969" y="1313" type="line" smooth="yes"/>
      <point x="1016" y="1616"/>
      <point x="889" y="1776"/>
      <point x="608" y="1776" type="curve" smooth="yes"/>
    </contour>
    <contour>
      <point x="623" y="1452"/>
      <point x="626" y="1382"/>
      <point x="614" y="1307" type="curve" smooth="yes"/>
      <point x="484" y="484" type="line" smooth="yes"/>
      <point x="472" y="407"/>
      <point x="452" y="308"/>
      <point x="377" y="308" type="curve" smooth="yes"/>
      <point x="295" y="308"/>
      <point x="306" y="407"/>
      <point x="318" y="477" type="curve" smooth="yes"/>
      <point x="449" y="1308" type="line" smooth="yes"/>
      <point x="460" y="1384"/>
      <point x="486" y="1452"/>
      <point x="555" y="1452" type="curve" smooth="yes"/>
    </contour>
  </outline>
</glyph>
<glyph name="R" format="1">
  <advance width="976"/>
  <unicode hex="0052"/>
  <outline>
    <contour>
      <point x="198" y="1760" type="line"/>
      <point x="-79" y="0" type="line"/>
      <point x="277" y="0" type="line"/>
      <point x="403" y="803" type="line"/>
      <point x="496" y="803"/>
      <point x="534" y="792"/>
      <point x="518" y="689" type="curve" smooth="yes"/>
      <point x="410" y="0" type="line"/>
      <point x="754" y="0" type="line"/>
      <point x="863" y="666" type="line" smooth="yes"/>
      <point x="885" y="805"/>
      <point x="858" y="895"/>
      <point x="752" y="918" type="curve"/>
      <point x="892" y="962"/>
      <point x="950" y="1075"/>
      <point x="980" y="1267" type="curve" smooth="yes"/>
      <point x="1027" y="1564"/>
      <point x="1008" y="1760"/>
      <point x="738" y="1760" type="curve" smooth="yes"/>
    </contour>
    <contour>
      <point x="646" y="1434"/>
      <point x="658" y="1404"/>
      <point x="636" y="1267" type="curve" smooth="yes"/>
      <point x="619" y="1160"/>
      <point x="585" y="1108"/>
      <point x="538" y="1108" type="curve" smooth="yes"/>
      <point x="453" y="1108" type="line"/>
      <point x="505" y="1434" type="line"/>
      <point x="587" y="1434" type="line" smooth="yes"/>
    </contour>
    <contour>
      <point x="599" y="1760" type="move" name="top"/>
    </contour>
    <contour>
      <point x="358" y="0" type="move" name="bot"/>
    </contour>
  </outline>
</glyph>
<glyph name="X" format="1">
  <advance width="991"/>
  <unicode hex="0058"/>
  <outline>
    <contour>
      <point x="-130" y="0" type="line"/>
      <point x="227" y="0" type="line"/>
      <point x="449" y="688" type="line"/>
      <point x="452" y="0" type="line"/>
      <point x="808" y="0" type="line"/>
      <point x="766" y="933" type="line"/>
      <point x="1047" y="1761" type="line"/>
      <point x="702" y="1761" type="line"/>
      <point x="526" y="1156" type="line"/>
      <point x="530" y="1761" type="line"/>
      <point x="186" y="1761" type="line"/>
      <point x="205" y="933" type="line"/>
    </contour>
  </outline>
</glyph>
<glyph name="bracketleft" format="1">
  <advance width="651"/>
  <unicode hex="005B"/>
  <outline>
    <contour>
      <point x="-95" y="0" type="line"/>
      <point x="459" y="0" type="line"/>
      <point x="502" y="281" type="line"/>
      <point x="300" y="281" type="line"/>
      <point x="489" y="1480" type="line"/>
      <point x="691" y="1480" type="line"/>
      <point x="736" y="1761" type="line"/>
      <point x="182" y="1761" type="line"/>
    </contour>
  </outline>
</glyph>
<glyph name="backslash" format="1">
  <advance width="830"/>
  <unicode hex="005C"/>
  <outline>
    <contour>
      <point x="147" y="1767" type="line"/>
      <point x="279" y="0" type="line"/>
      <point x="642" y="0" type="line"/>
      <point x="511" y="1767" type="line"/>
    </contour>
  </outline>
</glyph>
<glyph name="bracketright" format="1">
  <advance width="651"/>
  <unicode hex="005D"/>
  <outline>
    <contour>
      <point x="155" y="1761" type="line"/>
      <point x="110" y="1480" type="line"/>
      <point x="312" y="1480" type="line"/>
      <point x="123" y="281" type="line"/>
      <point x="-79" y="281" type="line"/>
      <point x="-122" y="0" type="line"/>
      <point x="432" y="0" type="line"/>
      <point x="709" y="1761" type="line"/>
    </contour>
  </outline>
</glyph>
<glyph name="grave" format="1">
  <advance width="650"/>
  <unicode hex="0060"/>
  <outline>
    <contour>
      <point x="587" y="1553" type="line"/>
      <point x="621" y="1776" type="line"/>
      <point x="181" y="1994" type="line"/>
      <point x="126" y="1647" type="line"/>
    </contour>
    <contour>
      <point x="397" y="1500" type="move" name="_top"/>
    </contour>
  </outline>
</glyph>
<glyph name="a" format="1">
  <advance width="990"/>
  <unicode hex="0061"/>
  <outline>
    <contour>
      <point x="224" y="-16" type="curve" smooth="yes"/>
      <point x="327" y="-16"/>
      <point x="422" y="53"/>
      <point x="477" y="178" type="curve"/>
      <point x="449" y="0" type="line"/>
      <point x="805" y="0" type="line"/>
      <point x="985" y="1143" type="line" smooth="yes"/>
      <point x="1023" y="1387"/>
      <point x="863" y="1516"/>
      <point x="623" y="1516" type="curve" smooth="yes"/>
      <point x="317" y="1516"/>
      <point x="165" y="1403"/>
      <point x="119" y="1105" type="curve" smooth="yes"/>
      <point x="115" y="1084"/>
      <point x="112" y="1067"/>
      <point x="112" y="1056" type="curve"/>
      <point x="460" y="1056" type="line"/>
      <point x="474" y="1146" type="line" smooth="yes"/>
      <point x="482" y="1201"/>
      <point x="509" y="1243"/>
      <point x="574" y="1239" type="curve" smooth="yes"/>
      <point x="619" y="1236"/>
      <point x="635" y="1213"/>
      <point x="621" y="1123" type="curve" smooth="yes"/>
      <point x="618" y="1102"/>
      <point x="601" y="998"/>
      <point x="597" y="972" type="curve" smooth="yes"/>
      <point x="597" y="969" type="line"/>
      <point x="243" y="854"/>
      <point x="54" y="839"/>
      <point x="-10" y="430" type="curve" smooth="yes"/>
      <point x="-51" y="174"/>
      <point x="-26" y="-16"/>
    </contour>
    <contour>
      <point x="408" y="262" type="curve" smooth="yes"/>
      <point x="355" y="262"/>
      <point x="335" y="306"/>
      <point x="349" y="395" type="curve" smooth="yes"/>
      <point x="380" y="588" type="line" smooth="yes"/>
      <point x="398" y="705"/>
      <point x="463" y="757"/>
      <point x="569" y="797" type="curve"/>
      <point x="502" y="379" type="line" smooth="yes"/>
      <point x="493" y="322"/>
      <point x="466" y="262"/>
    </contour>
    <contour>
      <point x="620" y="1500" type="move" name="top"/>
    </contour>
    <contour>
      <point x="636" y="0" type="move" name="ogonek"/>
    </contour>
  </outline>
</glyph>
<glyph name="c" format="1">
  <advance width="1006"/>
  <unicode hex="0063"/>
  <outline>
    <contour>
      <point x="402" y="-16" type="curve" smooth="yes"/>
      <point x="652" y="-16"/>
      <point x="855" y="130"/>
      <point x="893" y="379" type="curve" smooth="yes"/>
      <point x="935" y="641" type="line"/>
      <point x="570" y="641" type="line"/>
      <point x="533" y="389" type="line" smooth="yes"/>
      <point x="522" y="322"/>
      <point x="490" y="264"/>
      <point x="428" y="264" type="curve" smooth="yes"/>
      <point x="367" y="264"/>
      <point x="352" y="326"/>
      <point x="362" y="387" type="curve" smooth="yes"/>
      <point x="477" y="1114" type="line" smooth="yes"/>
      <point x="490" y="1197"/>
      <point x="525" y="1239"/>
      <point x="584" y="1239" type="curve" smooth="yes"/>
      <point x="651" y="1239"/>
      <point x="655" y="1185"/>
      <point x="645" y="1116" type="curve" smooth="yes"/>
      <point x="612" y="906" type="line"/>
      <point x="977" y="906" type="line"/>
      <point x="1013" y="1135" type="line" smooth="yes"/>
      <point x="1051" y="1380"/>
      <point x="886" y="1516"/>
      <point x="638" y="1516" type="curve" smooth="yes"/>
      <point x="281" y="1516"/>
      <point x="151" y="1330"/>
      <point x="91" y="954" type="curve" smooth="yes"/>
      <point x="18" y="492" type="line" smooth="yes"/>
      <point x="-34" y="158"/>
      <point x="66" y="-16"/>
    </contour>
    <contour>
      <point x="632" y="1500" type="move" name="top"/>
    </contour>
    <contour>
      <point x="364" y="0" type="move" name="bot"/>
    </contour>
  </outline>
</glyph>
<glyph name="d" format="1">
  <advance width="1020"/>
  <unicode hex="0064"/>
  <outline>
    <contour>
      <point x="206" y="-16" type="curve" smooth="yes"/>
      <point x="331" y="-16"/>
      <point x="399" y="51"/>
      <point x="456" y="159" type="curve"/>
      <point x="431" y="0" type="line"/>
      <point x="789" y="0" type="line"/>
      <point x="1068" y="1770" type="line"/>
      <point x="710" y="1770" type="line"/>
      <point x="655" y="1419" type="line"/>
      <point x="616" y="1485"/>
      <point x="548" y="1516"/>
      <point x="453" y="1516" type="curve" smooth="yes"/>
      <point x="248" y="1516"/>
      <point x="119" y="1357"/>
      <point x="86" y="1153" type="curve" smooth="yes"/>
      <point x="-24" y="477" type="line" smooth="yes"/>
      <point x="-68" y="201"/>
      <point x="-71" y="-16"/>
    </contour>
    <contour>
      <point x="386" y="264" type="curve" smooth="yes"/>
      <point x="329" y="264"/>
      <point x="311" y="327"/>
      <point x="330" y="452" type="curve" smooth="yes"/>
      <point x="430" y="1083" type="line" smooth="yes"/>
      <point x="442" y="1160"/>
      <point x="465" y="1239"/>
      <point x="542" y="1239" type="curve" smooth="yes"/>
      <point x="612" y="1239"/>
      <point x="612" y="1153"/>
      <point x="602" y="1083" type="curve" smooth="yes"/>
      <point x="513" y="520" type="line" smooth="yes"/>
      <point x="497" y="422"/>
      <point x="484" y="264"/>
    </contour>
    <contour>
      <point x="865" y="1629" type="move" name="mid"/>
    </contour>
  </outline>
</glyph>
<glyph name="f" format="1">
  <advance width="574"/>
  <unicode hex="0066"/>
  <outline>
    <contour>
      <point x="306" y="1778"/>
      <point x="212" y="1697"/>
      <point x="187" y="1536" type="curve" smooth="yes"/>
      <point x="171" y="1434" type="line"/>
      <point x="110" y="1434" type="line"/>
      <point x="83" y="1283"/>
      <point x="68" y="1192"/>
      <point x="62" y="1161" type="curve"/>
      <point x="127" y="1161" type="line"/>
      <point x="-55" y="0" type="line"/>
      <point x="300" y="0" type="line"/>
      <point x="482" y="1157" type="line"/>
      <point x="553" y="1157" type="line"/>
      <point x="597" y="1434" type="line"/>
      <point x="519" y="1434" type="line"/>
      <point x="522" y="1453" type="line" smooth="yes"/>
      <point x="529" y="1500"/>
      <point x="537" y="1533"/>
      <point x="579" y="1533" type="curve" smooth="yes"/>
      <point x="586" y="1533"/>
      <point x="597" y="1531"/>
      <point x="611" y="1528" type="curve"/>
      <point x="646" y="1749" type="line"/>
      <point x="604" y="1768"/>
      <point x="544" y="1778"/>
      <point x="467" y="1778" type="curve" smooth="yes"/>
    </contour>
    <contour>
      <point x="438" y="1760" type="move" name="top"/>
    </contour>
  </outline>
</glyph>
<glyph name="i" format="1">
  <advance width="498"/>
  <unicode hex="0069"/>
  <outline>
    <contour>
      <point x="135" y="1500" type="line"/>
      <point x="-102" y="0" type="line"/>
      <point x="256" y="0" type="line"/>
      <point x="493" y="1500" type="line"/>
    </contour>
    <contour>
      <point x="190" y="1850" type="line"/>
      <point x="150" y="1600" type="line"/>
      <point x="508" y="1600" type="line"/>
      <point x="548" y="1850" type="line"/>
    </contour>
  </outline>
</glyph>
<glyph name="k" format="1">
  <advance width="1005"/>
  <unicode hex="006B"/>
  <outline>
    <contour>
      <point x="192" y="1769" type="line"/>
      <point x="-87" y="0" type="line"/>
      <point x="267" y="0" type="line"/>
      <point x="379" y="707" type="line"/>
      <point x="490" y="0" type="line"/>
      <point x="871" y="0" type="line"/>
      <point x="719" y="848" type="line"/>
      <point x="1047" y="1500" type="line"/>
      <point x="676" y="1500" type="line"/>
      <point x="422" y="983" type="line"/>
      <point x="546" y="1769" type="line"/>
    </contour>
    <contour>
      <point x="358" y="0" type="move" name="bot"/>
    </contour>
  </outline>
</glyph>
<glyph name="m" format="1">
  <advance width="1553"/>
  <unicode hex="006D"/>
  <outline>
    <contour>
      <point x="-47" y="0" type="line"/>
      <point x="303" y="0" type="line"/>
      <point x="470" y="1059" type="line" smooth="yes"/>
      <point x="483" y="1140"/>
      <point x="517" y="1243"/>
      <point x="598" y="1243" type="curve" smooth="yes"/>
      <point x="661" y="1243"/>
      <point x="657" y="1165"/>
      <point x="647" y="1102" type="curve" smooth="yes"/>
      <point x="473" y="0" type="line"/>
      <point x="831" y="0" type="line"/>
      <point x="1001" y="1077" type="line" smooth="yes"/>
      <point x="1013" y="1154"/>
      <point x="1048" y="1247"/>
      <point x="1125" y="1247" type="curve" smooth="yes"/>
      <point x="1174" y="1247"/>
      <point x="1190" y="1199"/>
      <point x="1175" y="1102" type="curve" smooth="yes"/>
      <point x="1001" y="0" type="line"/>
      <point x="1362" y="0" type="line"/>
      <point x="1538" y="1096" type="line"/>
      <point x="1578" y="1343"/>
      <point x="1541" y="1516"/>
      <point x="1292" y="1516" type="curve" smooth="yes"/>
      <point x="1154" y="1516"/>
      <point x="1084" y="1464"/>
      <point x="1013" y="1365" type="curve"/>
      <point x="993" y="1456"/>
      <point x="914" y="1516"/>
      <point x="794" y="1516" type="curve" smooth="yes"/>
      <point x="644" y="1516"/>
      <point x="564" y="1448"/>
      <point x="512" y="1326" type="curve"/>
      <point x="539" y="1500" type="line"/>
      <point x="189" y="1500" type="line"/>
    </contour>
    <contour>
      <point x="1040" y="1500" type="move" name="top"/>
    </contour>
  </outline>
</glyph>
<glyph name="o" format="1">
  <advance width="1017"/>
  <unicode hex="006F"/>
  <outline>
    <contour>
      <point x="348" y="1516"/>
      <point x="152" y="1333"/>
      <point x="107" y="1051" type="curve" smooth="yes"/>
      <point x="12" y="449" type="line" smooth="yes"/>
      <point x="-37" y="138"/>
      <point x="88" y="-16"/>
      <point x="387" y="-16" type="curve" smooth="yes"/>
      <point x="688" y="-16"/>
      <point x="860" y="143"/>
      <point x="909" y="449" type="curve" smooth="yes"/>
      <point x="1004" y="1051" type="line" smooth="yes"/>
      <point x="1049" y="1334"/>
      <point x="909" y="1516"/>
      <point x="628" y="1516" type="curve" smooth="yes"/>
    </contour>
    <contour>
      <point x="640" y="1239"/>
      <point x="662" y="1195"/>
      <point x="648" y="1108" type="curve" smooth="yes"/>
      <point x="532" y="375" type="line" smooth="yes"/>
      <point x="522" y="308"/>
      <point x="490" y="260"/>
      <point x="430" y="260" type="curve" smooth="yes"/>
      <point x="370" y="260"/>
      <point x="354" y="308"/>
      <point x="364" y="375" type="curve" smooth="yes"/>
      <point x="480" y="1108" type="line" smooth="yes"/>
      <point x="494" y="1195"/>
      <point x="528" y="1239"/>
      <point x="584" y="1239" type="curve" smooth="yes"/>
    </contour>
    <contour>
      <point x="626" y="1500" type="move" name="top"/>
    </contour>
  </outline>
</glyph>
<glyph name="p" format="1">
  <advance width="1023"/>
  <unicode hex="0070"/>
  <outline>
    <contour>
      <point x="682" y="1516"/>
      <point x="605" y="1485"/>
      <point x="541" y="1419" type="curve"/>
      <point x="553" y="1500" type="line"/>
      <point x="189" y="1500" type="line"/>
      <point x="-94" y="-300" type="line"/>
      <point x="270" y="-300" type="line"/>
      <point x="326" y="59" type="line"/>
      <point x="365" y="8"/>
      <point x="430" y="-16"/>
      <point x="520" y="-16" type="curve" smooth="yes"/>
      <point x="816" y="-16"/>
      <point x="879" y="225"/>
      <point x="926" y="521" type="curve" smooth="yes"/>
      <point x="1014" y="1075" type="line" smooth="yes"/>
      <point x="1052" y="1323"/>
      <point x="1019" y="1516"/>
      <point x="771" y="1516" type="curve" smooth="yes"/>
    </contour>
    <contour>
      <point x="672" y="1235"/>
      <point x="662" y="1152"/>
      <point x="651" y="1075" type="curve" smooth="yes"/>
      <point x="550" y="438" type="line" smooth="yes"/>
      <point x="535" y="346"/>
      <point x="517" y="262"/>
      <point x="444" y="262" type="curve" smooth="yes"/>
      <point x="369" y="262"/>
      <point x="370" y="336"/>
      <point x="384" y="422" type="curve" smooth="yes"/>
      <point x="487" y="1079" type="line" smooth="yes"/>
      <point x="503" y="1183"/>
      <point x="539" y="1235"/>
      <point x="595" y="1235" type="curve" smooth="yes"/>
    </contour>
    <contour>
      <point x="630" y="1500" type="move" name="top"/>
    </contour>
  </outline>
</glyph>
<glyph name="q" format="1">
  <advance width="1023"/>
  <unicode hex="0071"/>
  <outline>
    <contour>
      <point x="420" y="-300" type="line"/>
      <point x="785" y="-300" type="line"/>
      <point x="1068" y="1500" type="line"/>
      <point x="703" y="1500" type="line"/>
      <point x="691" y="1419" type="line"/>
      <point x="648" y="1485"/>
      <point x="581" y="1516"/>
      <point x="491" y="1516" type="curve" smooth="yes"/>
      <point x="244" y="1516"/>
      <point x="149" y="1322"/>
      <point x="111" y="1075" type="curve" smooth="yes"/>
      <point x="17" y="482" type="line" smooth="yes"/>
      <point x="-29" y="191"/>
      <point x="-32" y="-16"/>
      <point x="260" y="-16" type="curve" smooth="yes"/>
      <point x="352" y="-16"/>
      <point x="429" y="32"/>
      <point x="481" y="90" type="curve"/>
    </contour>
    <contour>
      <point x="422" y="262" type="curve" smooth="yes"/>
      <point x="349" y="262"/>
      <point x="357" y="346"/>
      <point x="372" y="438" type="curve" smooth="yes"/>
      <point x="473" y="1075" type="line" smooth="yes"/>
      <point x="484" y="1152"/>
      <point x="500" y="1235"/>
      <point x="577" y="1235" type="curve" smooth="yes"/>
      <point x="633" y="1235"/>
      <point x="653" y="1183"/>
      <point x="637" y="1079" type="curve" smooth="yes"/>
      <point x="534" y="422" type="line" smooth="yes"/>
      <point x="520" y="335"/>
      <point x="498" y="262"/>
    </contour>
  </outline>
</glyph>
<glyph name="s" format="1">
  <advance width="972"/>
  <unicode hex="0073"/>
  <outline>
    <contour>
      <point x="362" y="-16" type="curve" smooth="yes"/>
      <point x="642" y="-16"/>
      <point x="836" y="135"/>
      <point x="881" y="418" type="curve" smooth="yes"/>
      <point x="917" y="646"/>
      <point x="827" y="768"/>
      <point x="706" y="870" type="curve" smooth="yes"/>
      <point x="511" y="1032" type="line" smooth="yes"/>
      <point x="472" y="1063"/>
      <point x="459" y="1106"/>
      <point x="467" y="1159" type="curve" smooth="yes"/>
      <point x="474" y="1209"/>
      <point x="505" y="1239"/>
      <point x="555" y="1239" type="curve" smooth="yes"/>
      <point x="615" y="1239"/>
      <point x="621" y="1170"/>
      <point x="611" y="1110" type="curve" smooth="yes"/>
      <point x="602" y="1053" type="line"/>
      <point x="972" y="1053" type="line"/>
      <point x="977" y="1081" type="line" smooth="yes"/>
      <point x="1022" y="1372"/>
      <point x="896" y="1516"/>
      <point x="609" y="1516" type="curve" smooth="yes"/>
      <point x="372" y="1516"/>
      <point x="146" y="1394"/>
      <point x="108" y="1157" type="curve" smooth="yes"/>
      <point x="76" y="951"/>
      <point x="126" y="865"/>
      <point x="232" y="772" type="curve" smooth="yes"/>
      <point x="400" y="625" type="line" smooth="yes"/>
      <point x="468" y="566"/>
      <point x="523" y="515"/>
      <point x="503" y="385" type="curve" smooth="yes"/>
      <point x="491" y="307"/>
      <point x="460" y="268"/>
      <point x="412" y="268" type="curve" smooth="yes"/>
      <point x="347" y="268"/>
      <point x="331" y="309"/>
      <point x="341" y="377" type="curve" smooth="yes"/>
      <point x="367" y="553" type="line"/>
      <point x="9" y="553" type="line"/>
      <point x="-12" y="434" type="line" smooth="yes"/>
      <point x="-59" y="133"/>
      <point x="66" y="-16"/>
    </contour>
    <contour>
      <point x="606" y="1500" type="move" name="top"/>
    </contour>
    <contour>
      <point x="350" y="0" type="move" name="bot"/>
    </contour>
  </outline>
</glyph>
<glyph name="t" format="1">
  <advance width="625"/>
  <unicode hex="0074"/>
  <outline>
    <contour>
      <point x="254" y="1760" type="line"/>
      <point x="204" y="1442" type="line"/>
      <point x="103" y="1442" type="line"/>
      <point x="59" y="1169" type="line"/>
      <point x="160" y="1169" type="line"/>
      <point x="14" y="234" type="line" smooth="yes"/>
      <point x="-13" y="65"/>
      <point x="27" y="-16"/>
      <point x="220" y="-16" type="curve" smooth="yes"/>
      <point x="307" y="-16"/>
      <point x="411" y="6"/>
      <point x="427" y="11" type="curve"/>
      <point x="465" y="255" type="line"/>
      <point x="465" y="255"/>
      <point x="428" y="251"/>
      <point x="402" y="251" type="curve" smooth="yes"/>
      <point x="364" y="251"/>
      <point x="370" y="288"/>
      <point x="376" y="328" type="curve" smooth="yes"/>
      <point x="508" y="1169" type="line"/>
      <point x="609" y="1169" type="line"/>
      <point x="653" y="1442" type="line"/>
      <point x="552" y="1442" type="line"/>
      <point x="602" y="1760" type="line"/>
    </contour>
    <contour>
      <point x="225" y="0" type="move" name="bot"/>
    </contour>
    <contour>
      <point x="280" y="776" type="move" name="mid"/>
    </contour>
    <contour>
      <point x="435" y="1760" type="move" name="top"/>
    </contour>
  </outline>
</glyph>
<glyph name="u" format="1">
  <advance width="1022"/>
  <unicode hex="0075"/>
  <outline>
    <contour>
      <point x="242" y="-16" type="curve" smooth="yes"/>
      <point x="378" y="-16"/>
      <point x="436" y="45"/>
      <point x="500" y="160" type="curve"/>
      <point x="476" y="0" type="line"/>
      <point x="834" y="0" type="line"/>
      <point x="1070" y="1500" type="line"/>
      <point x="714" y="1500" type="line"/>
      <point x="548" y="455" type="line"/>
      <point x="545" y="443" type="line" smooth="yes"/>
      <point x="532" y="360"/>
      <point x="516" y="264"/>
      <point x="433" y="264" type="curve" smooth="yes"/>
      <point x="345" y="264"/>
      <point x="366" y="342"/>
      <point x="384" y="455" type="curve" smooth="yes"/>
      <point x="548" y="1500" type="line"/>
      <point x="188" y="1500" type="line"/>
      <point x="12" y="383" type="line" smooth="yes"/>
      <point x="-26" y="143"/>
      <point x="1" y="-16"/>
    </contour>
    <contour>
      <point x="632" y="1500" type="move" name="top"/>
    </contour>
    <contour>
      <point x="639" y="0" type="move" name="ogonek"/>
    </contour>
  </outline>
</glyph>
<glyph name="w" format="1">
  <advance width="1426"/>
  <unicode hex="0077"/>
  <outline>
    <contour>
      <point x="113" y="0" type="line"/>
      <point x="510" y="0" type="line"/>
      <point x="737" y="851" type="line"/>
      <point x="712" y="0" type="line"/>
      <point x="1069" y="0" type="line"/>
      <point x="1498" y="1500" type="line"/>
      <point x="1160" y="1500" type="line"/>
      <point x="950" y="694" type="line"/>
      <point x="974" y="1500" type="line"/>
      <point x="661" y="1500" type="line"/>
      <point x="447" y="694" type="line"/>
      <point x="475" y="1500" type="line"/>
      <point x="168" y="1500" type="line"/>
    </contour>
    <contour>
      <point x="842" y="1500" type="move" name="top"/>
    </contour>
  </outline>
</glyph>
<glyph name="z" format="1">
  <advance width="790"/>
  <unicode hex="007A"/>
  <outline>
    <contour>
      <point x="166" y="1500" type="line"/>
      <point x="121" y="1216" type="line"/>
      <point x="477" y="1216" type="line"/>
      <point x="-54" y="219" type="line"/>
      <point x="-88" y="0" type="line"/>
      <point x="660" y="0" type="line"/>
      <point x="702" y="268" type="line"/>
      <point x="346" y="268" type="line"/>
      <point x="854" y="1256" type="line"/>
      <point x="893" y="1500" type="line"/>
    </contour>
    <contour>
      <point x="556" y="1500" type="move" name="top"/>
    </contour>
  </outline>
</glyph>
<glyph name="braceleft" format="1">
  <advance width="696"/>
  <unicode hex="007B"/>
  <outline>
    <contour>
      <point x="523" y="-18" type="curve"/>
      <point x="564" y="249" type="line"/>
      <point x="495" y="254"/>
      <point x="423" y="263"/>
      <point x="439" y="338" type="curve"/>
      <point x="478" y="582"/>
      <point x="450" y="693"/>
      <point x="342" y="802" type="curve"/>
      <point x="487" y="914"/>
      <point x="548" y="1027"/>
      <point x="587" y="1272" type="curve" smooth="yes"/>
      <point x="598" y="1343"/>
      <point x="667" y="1351"/>
      <point x="739" y="1356" type="curve"/>
      <point x="781" y="1623" type="line"/>
      <point x="493" y="1615"/>
      <point x="271" y="1504"/>
      <point x="227" y="1225" type="curve" smooth="yes"/>
      <point x="214" y="1140" type="line" smooth="yes"/>
      <point x="192" y="1007"/>
      <point x="158" y="957"/>
      <point x="43" y="936" type="curve"/>
      <point x="1" y="669" type="line"/>
      <point x="115" y="646"/>
      <point x="127" y="585"/>
      <point x="104" y="445" type="curve" smooth="yes"/>
      <point x="92" y="370" type="line" smooth="yes"/>
      <point x="49" y="95"/>
      <point x="238" y="-10"/>
    </contour>
  </outline>
</glyph>
<glyph name="bar" format="1">
  <advance width="443"/>
  <unicode hex="007C"/>
  <outline>
    <contour>
      <point x="-139" y="-84" type="line"/>
      <point x="180" y="-84" type="line"/>
      <point x="501" y="1953" type="line"/>
      <point x="182" y="1953" type="line"/>
    </contour>
  </outline>
</glyph>
<glyph name="braceright" format="1">
  <advance width="697"/>
  <unicode hex="007D"/>
  <outline>
    <contour>
      <point x="114" y="1356" type="line"/>
      <point x="186" y="1351"/>
      <point x="251" y="1343"/>
      <point x="240" y="1272" type="curve" smooth="yes"/>
      <point x="201" y="1026"/>
      <point x="228" y="912"/>
      <point x="335" y="802" type="curve"/>
      <point x="192" y="691"/>
      <point x="131" y="582"/>
      <point x="92" y="338" type="curve" smooth="yes"/>
      <point x="80" y="262"/>
      <point x="14" y="254"/>
      <point x="-61" y="249" type="curve"/>
      <point x="-102" y="-18" type="line"/>
      <point x="183" y="-10"/>
      <point x="406" y="95"/>
      <point x="449" y="370" type="curve" smooth="yes"/>
      <point x="461" y="445" type="line" smooth="yes"/>
      <point x="484" y="585"/>
      <point x="514" y="646"/>
      <point x="636" y="669" type="curve"/>
      <point x="678" y="936" type="line"/>
      <point x="569" y="957"/>
      <point x="549" y="1007"/>
      <point x="571" y="1140" type="curve" smooth="yes"/>
      <point x="584" y="1225" type="line" smooth="yes"/>
      <point x="628" y="1504"/>
      <point x="442" y="1615"/>
      <point x="156" y="1623" type="curve"/>
    </contour>
  </outline>
</glyph>
<glyph name="asciitilde" format="1">
  <advance width="1009"/>
  <unicode hex="007E"/>
  <outline>
    <contour>
      <point x="797" y="810" type="curve" smooth="yes"/>
      <point x="962" y="810"/>
      <point x="1035" y="948"/>
      <point x="1114" y="1095" type="curve"/>
      <point x="941" y="1155" type="line"/>
      <point x="902" y="1094"/>
      <point x="866" y="1073"/>
      <point x="826" y="1073" type="curve" smooth="yes"/>
      <point x="743" y="1073"/>
      <point x="646" y="1164"/>
      <point x="440" y="1164" type="curve" smooth="yes"/>
      <point x="284" y="1164"/>
      <point x="206" y="1053"/>
      <point x="132" y="921" type="curve"/>
      <point x="281" y="835" type="line"/>
      <point x="317" y="891"/>
      <point x="354" y="910"/>
      <point x="393" y="910" type="curve" smooth="yes"/>
      <point x="481" y="910"/>
      <point x="634" y="810"/>
    </contour>
  </outline>
</glyph>
<glyph name="sterling" format="1">
  <advance width="970"/>
  <unicode hex="00A3"/>
  <outline>
    <contour>
      <point x="402" y="1608"/>
      <point x="228" y="1489"/>
      <point x="187" y="1224" type="curve" smooth="yes"/>
      <point x="176" y="1158"/>
      <point x="182" y="1023"/>
      <point x="187" y="964" type="curve" smooth="yes"/>
      <point x="191" y="905" type="line"/>
      <point x="56" y="905" type="line"/>
      <point x="19" y="673" type="line"/>
      <point x="181" y="673" type="line"/>
      <point x="183" y="647"/>
      <point x="181" y="612"/>
      <point x="174" y="568" type="curve" smooth="yes"/>
      <point x="148" y="402"/>
      <point x="84" y="352"/>
      <point x="-47" y="281" type="curve"/>
      <point x="-91" y="0" type="line"/>
      <point x="791" y="0" type="line"/>
      <point x="836" y="291" type="line"/>
      <point x="366" y="291" type="line"/>
      <point x="450" y="337"/>
      <point x="522" y="422"/>
      <point x="548" y="541" type="curve"/>
      <point x="557" y="673" type="line"/>
      <point x="806" y="673" type="line"/>
      <point x="843" y="905" type="line"/>
      <point x="559" y="905" type="line"/>
      <point x="546" y="1053"/>
      <point x="541" y="1142"/>
      <point x="546" y="1173" type="curve" smooth="yes"/>
      <point x="547" y="1186" type="line" smooth="yes"/>
      <point x="557" y="1250"/>
      <point x="561" y="1312"/>
      <point x="624" y="1312" type="curve" smooth="yes"/>
      <point x="691" y="1312"/>
      <point x="671" y="1212"/>
      <point x="658" y="1125" type="curve"/>
      <point x="977" y="1125" type="line"/>
      <point x="1023" y="1421"/>
      <point x="953" y="1608"/>
      <point x="664" y="1608" type="curve" smooth="yes"/>
    </contour>
  </outline>
</glyph>
<glyph name="currency" format="1">
  <advance width="1000"/>
  <unicode hex="00A4"/>
  <outline>
    <contour>
      <point x="170" y="509" type="line"/>
      <point x="273" y="598" type="line"/>
      <point x="329" y="563"/>
      <point x="399" y="545"/>
      <point x="482" y="545" type="curve" smooth="yes"/>
      <point x="564" y="545"/>
      <point x="638" y="562"/>
      <point x="705" y="597" type="curve"/>
      <point x="780" y="509" type="line"/>
      <point x="954" y="658" type="line"/>
      <point x="879" y="748" type="line"/>
      <point x="925" y="813"/>
      <point x="954" y="885"/>
      <point x="966" y="964" type="curve" smooth="yes"/>
      <point x="979" y="1043"/>
      <point x="972" y="1114"/>
      <point x="947" y="1179" type="curve"/>
      <point x="1051" y="1269" type="line"/>
      <point x="924" y="1418" type="line"/>
      <point x="823" y="1331" type="line"/>
      <point x="764" y="1367"/>
      <point x="694" y="1385"/>
      <point x="614" y="1385" type="curve" smooth="yes"/>
      <point x="533" y="1385"/>
      <point x="458" y="1367"/>
      <point x="387" y="1330" type="curve"/>
      <point x="314" y="1418" type="line"/>
      <point x="142" y="1268" type="line"/>
      <point x="218" y="1178" type="line"/>
      <point x="172" y="1113"/>
      <point x="144" y="1042"/>
      <point x="131" y="964" type="curve" smooth="yes"/>
      <point x="119" y="887"/>
      <point x="126" y="815"/>
      <point x="151" y="750" type="curve"/>
      <point x="45" y="659" type="line"/>
    </contour>
    <contour>
      <point x="512" y="741" type="curve" smooth="yes"/>
      <point x="385" y="741"/>
      <point x="320" y="840"/>
      <point x="339" y="964" type="curve" smooth="yes"/>
      <point x="358" y="1087"/>
      <point x="457" y="1186"/>
      <point x="583" y="1186" type="curve" smooth="yes"/>
      <point x="712" y="1186"/>
      <point x="777" y="1092"/>
      <point x="757" y="966" type="curve" smooth="yes"/>
      <point x="737" y="842"/>
      <point x="639" y="741"/>
    </contour>
  </outline>
</glyph>
<glyph name="brokenbar" format="1">
  <advance width="455"/>
  <unicode hex="00A6"/>
  <outline>
    <contour>
      <point x="-133" y="-84" type="line"/>
      <point x="186" y="-84" type="line"/>
      <point x="325" y="796" type="line"/>
      <point x="6" y="796" type="line"/>
    </contour>
    <contour>
      <point x="44" y="1043" type="line"/>
      <point x="363" y="1043" type="line"/>
      <point x="507" y="1953" type="line"/>
      <point x="188" y="1953" type="line"/>
    </contour>
  </outline>
</glyph>
<glyph name="section" format="1">
  <advance width="920"/>
  <unicode hex="00A7"/>
  <outline>
    <contour>
      <point x="332" y="-19" type="curve" smooth="yes"/>
      <point x="551" y="-19"/>
      <point x="759" y="107"/>
      <point x="791" y="313" type="curve" smooth="yes"/>
      <point x="806" y="407"/>
      <point x="773" y="488"/>
      <point x="690" y="557" type="curve"/>
      <point x="794" y="626"/>
      <point x="851" y="704"/>
      <point x="866" y="792" type="curve" smooth="yes"/>
      <point x="889" y="941"/>
      <point x="782" y="1042"/>
      <point x="677" y="1101" type="curve" smooth="yes"/>
      <point x="629" y="1129"/>
      <point x="435" y="1189"/>
      <point x="447" y="1264" type="curve" smooth="yes"/>
      <point x="455" y="1316"/>
      <point x="502" y="1346"/>
      <point x="556" y="1346" type="curve" smooth="yes"/>
      <point x="615" y="1346"/>
      <point x="639" y="1304"/>
      <point x="630" y="1221" type="curve"/>
      <point x="935" y="1221" type="line"/>
      <point x="976" y="1488"/>
      <point x="852" y="1607"/>
      <point x="586" y="1607" type="curve" smooth="yes"/>
      <point x="367" y="1607"/>
      <point x="161" y="1481"/>
      <point x="127" y="1275" type="curve" smooth="yes"/>
      <point x="113" y="1180"/>
      <point x="146" y="1098"/>
      <point x="227" y="1031" type="curve"/>
      <point x="124" y="962"/>
      <point x="66" y="883"/>
      <point x="52" y="795" type="curve" smooth="yes"/>
      <point x="28" y="646"/>
      <point x="135" y="546"/>
      <point x="240" y="488" type="curve" smooth="yes"/>
      <point x="288" y="460"/>
      <point x="484" y="401"/>
      <point x="471" y="324" type="curve" smooth="yes"/>
      <point x="463" y="274"/>
      <point x="423" y="242"/>
      <point x="372" y="242" type="curve" smooth="yes"/>
      <point x="313" y="242"/>
      <point x="290" y="284"/>
      <point x="300" y="367" type="curve"/>
      <point x="-35" y="367" type="line"/>
      <point x="-79" y="95"/>
      <point x="58" y="-19"/>
    </contour>
    <contour>
      <point x="532" y="681" type="curve"/>
      <point x="454" y="707"/>
      <point x="331" y="741"/>
      <point x="342" y="813" type="curve" smooth="yes"/>
      <point x="346" y="843"/>
      <point x="369" y="878"/>
      <point x="408" y="917" type="curve"/>
      <point x="536" y="872"/>
      <point x="596" y="826"/>
      <point x="588" y="780" type="curve" smooth="yes"/>
      <point x="584" y="750"/>
      <point x="565" y="717"/>
    </contour>
  </outline>
</glyph>
<glyph name="dieresis" format="1">
  <advance width="976"/>
  <unicode hex="00A8"/>
  <outline>
    <contour>
      <point x="139" y="1599" type="line"/>
      <point x="497" y="1599" type="line"/>
      <point x="544" y="1897" type="line"/>
      <point x="186" y="1897" type="line"/>
    </contour>
    <contour>
      <point x="623" y="1599" type="line"/>
      <point x="981" y="1599" type="line"/>
      <point x="1028" y="1897" type="line"/>
      <point x="670" y="1897" type="line"/>
    </contour>
    <contour>
      <point x="551" y="1500" type="move" name="_top"/>
    </contour>
  </outline>
</glyph>
<glyph name="ordfeminine" format="1">
  <advance width="803"/>
  <unicode hex="00AA"/>
  <outline>
    <contour>
      <point x="532" y="1997" type="line" smooth="yes"/>
      <point x="289" y="1997"/>
      <point x="168" y="1906"/>
      <point x="131" y="1670" type="curve" smooth="yes"/>
      <point x="128" y="1653"/>
      <point x="126" y="1640"/>
      <point x="125" y="1631" type="curve"/>
      <point x="401" y="1631" type="line"/>
      <point x="414" y="1711" type="line" smooth="yes"/>
      <point x="421" y="1754"/>
      <point x="444" y="1776"/>
      <point x="483" y="1776" type="curve" smooth="yes"/>
      <point x="559" y="1776"/>
      <point x="524" y="1649"/>
      <point x="512" y="1573" type="curve" smooth="yes"/>
      <point x="512" y="1571" type="line"/>
      <point x="232" y="1480"/>
      <point x="79" y="1458"/>
      <point x="28" y="1134" type="curve" smooth="yes"/>
      <point x="-4" y="931"/>
      <point x="15" y="779"/>
      <point x="213" y="779" type="curve" smooth="yes"/>
      <point x="295" y="779"/>
      <point x="385" y="851"/>
      <point x="412" y="917" type="curve"/>
      <point x="393" y="793" type="line"/>
      <point x="675" y="793" type="line"/>
      <point x="819" y="1700" type="line" smooth="yes"/>
      <point x="848" y="1891"/>
      <point x="726" y="1997"/>
      <point x="539" y="1997" type="curve" smooth="yes"/>
    </contour>
    <contour>
      <point x="435" y="1094" type="line" smooth="yes"/>
      <point x="429" y="1049"/>
      <point x="407" y="1001"/>
      <point x="361" y="1001" type="curve" smooth="yes"/>
      <point x="318" y="1001"/>
      <point x="302" y="1036"/>
      <point x="314" y="1106" type="curve" smooth="yes"/>
      <point x="336" y="1245" type="line" smooth="yes"/>
      <point x="350" y="1338"/>
      <point x="401" y="1376"/>
      <point x="485" y="1407" type="curve"/>
    </contour>
  </outline>
</glyph>
<glyph name="logicalnot" format="1">
  <advance width="827"/>
  <unicode hex="00AC"/>
  <outline>
    <contour>
      <point x="157" y="979" type="line"/>
      <point x="129" y="801" type="line"/>
      <point x="547" y="801" type="line"/>
      <point x="490" y="439" type="line"/>
      <point x="801" y="439" type="line"/>
      <point x="886" y="979" type="line"/>
    </contour>
  </outline>
</glyph>
<glyph name="macron" format="1">
  <advance width="1707"/>
  <unicode hex="00AF"/>
  <outline>
    <contour>
      <point x="645" y="1785" type="line"/>
      <point x="621" y="1632" type="line"/>
      <point x="1271" y="1632" type="line"/>
      <point x="1295" y="1785" type="line"/>
    </contour>
    <contour>
      <point x="961" y="1710" type="move" name="_mid"/>
    </contour>
    <contour>
      <point x="929" y="1500" type="move" name="_top"/>
    </contour>
  </outline>
</glyph>
<glyph name="plusminus" format="1">
  <advance width="734"/>
  <unicode hex="00B1"/>
  <outline>
    <contour>
      <point x="271" y="414" type="line"/>
      <point x="503" y="414" type="line"/>
      <point x="537" y="622" type="line"/>
      <point x="745" y="622" type="line"/>
      <point x="781" y="854" type="line"/>
      <point x="573" y="854" type="line"/>
      <point x="606" y="1062" type="line"/>
      <point x="374" y="1062" type="line"/>
      <point x="341" y="854" type="line"/>
      <point x="133" y="854" type="line"/>
      <point x="97" y="622" type="line"/>
      <point x="305" y="622" type="line"/>
    </contour>
    <contour>
      <point x="39" y="-1" type="line"/>
      <point x="555" y="-1" type="line"/>
      <point x="592" y="231" type="line"/>
      <point x="76" y="231" type="line"/>
    </contour>
  </outline>
</glyph>
<glyph name="twosuperior" format="1">
  <advance width="618"/>
  <unicode hex="00B2"/>
  <outline>
    <contour>
      <point x="13" y="631" type="line"/>
      <point x="532" y="631" type="line"/>
      <point x="561" y="814" type="line"/>
      <point x="288" y="814" type="line"/>
      <point x="405" y="987"/>
      <point x="611" y="1085"/>
      <point x="652" y="1344" type="curve" smooth="yes"/>
      <point x="678" y="1511"/>
      <point x="595" y="1606"/>
      <point x="430" y="1606" type="curve" smooth="yes"/>
      <point x="219" y="1606"/>
      <point x="147" y="1496"/>
      <point x="114" y="1278" type="curve" smooth="yes"/>
      <point x="105" y="1218" type="line"/>
      <point x="315" y="1218" type="line"/>
      <point x="335" y="1337" type="line" smooth="yes"/>
      <point x="344" y="1395"/>
      <point x="366" y="1424"/>
      <point x="400" y="1424" type="curve" smooth="yes"/>
      <point x="435" y="1424"/>
      <point x="448" y="1396"/>
      <point x="439" y="1341" type="curve" smooth="yes"/>
      <point x="428" y="1272"/>
      <point x="402" y="1218"/>
      <point x="362" y="1178" type="curve" smooth="yes"/>
      <point x="201" y="1015"/>
      <point x="54" y="890"/>
      <point x="21" y="678" type="curve" smooth="yes"/>
    </contour>
  </outline>
</glyph>
<glyph name="acute" format="1">
  <advance width="650"/>
  <unicode hex="00B4"/>
  <outline>
    <contour>
      <point x="142" y="1553" type="line"/>
      <point x="631" y="1647" type="line"/>
      <point x="686" y="1994" type="line"/>
      <point x="176" y="1776" type="line"/>
    </contour>
    <contour>
      <point x="374" y="1500" type="move" name="_top"/>
    </contour>
  </outline>
</glyph>
<glyph name="uni00B5" format="1">
  <advance width="1006"/>
  <unicode hex="00B5"/>
  <outline>
    <contour>
      <point x="-84" y="-186" type="line"/>
      <point x="276" y="-186" type="line"/>
      <point x="303" y="-11" type="line"/>
      <point x="394" y="6"/>
      <point x="447" y="72"/>
      <point x="494" y="160" type="curve"/>
      <point x="470" y="0" type="line"/>
      <point x="828" y="0" type="line"/>
      <point x="1064" y="1500" type="line"/>
      <point x="708" y="1500" type="line"/>
      <point x="542" y="455" type="line"/>
      <point x="539" y="443" type="line" smooth="yes"/>
      <point x="526" y="360"/>
      <point x="510" y="264"/>
      <point x="427" y="264" type="curve" smooth="yes"/>
      <point x="339" y="264"/>
      <point x="360" y="342"/>
      <point x="378" y="455" type="curve" smooth="yes"/>
      <point x="542" y="1500" type="line"/>
      <point x="182" y="1500" type="line"/>
    </contour>
  </outline>
</glyph>
<glyph name="paragraph" format="1">
  <advance width="1019"/>
  <unicode hex="00B6"/>
  <outline>
    <contour>
      <point x="246" y="0" type="line"/>
      <point x="492" y="0" type="line"/>
      <point x="695" y="1287" type="line"/>
      <point x="789" y="1287" type="line"/>
      <point x="586" y="0" type="line"/>
      <point x="825" y="0" type="line"/>
      <point x="1077" y="1593" type="line"/>
      <point x="702" y="1593" type="line" smooth="yes"/>
      <point x="394" y="1593"/>
      <point x="139" y="1516"/>
      <point x="91" y="1210" type="curve" smooth="yes"/>
      <point x="50" y="949"/>
      <point x="137" y="823"/>
      <point x="372" y="797" type="curve"/>
    </contour>
  </outline>
</glyph>
<glyph name="periodcentered" format="1">
  <advance width="480"/>
  <unicode hex="00B7"/>
  <outline>
    <contour>
      <point x="154" y="723" type="line"/>
      <point x="472" y="723" type="line"/>
      <point x="519" y="1021" type="line"/>
      <point x="201" y="1021" type="line"/>
    </contour>
    <contour>
      <point x="344" y="878" type="move" name="_mid"/>
    </contour>
  </outline>
</glyph>
<glyph name="onesuperior" format="1">
  <advance width="421"/>
  <unicode hex="00B9"/>
  <outline>
    <contour>
      <point x="323" y="1607" type="line"/>
      <point x="313" y="1545"/>
      <point x="188" y="1487"/>
      <point x="130" y="1487" type="curve"/>
      <point x="131" y="1483"/>
      <point x="129" y="1469"/>
      <point x="125" y="1444" type="curve" smooth="yes"/>
      <point x="120" y="1413"/>
      <point x="114" y="1377"/>
      <point x="105" y="1334" type="curve"/>
      <point x="148" y="1334"/>
      <point x="192" y="1344"/>
      <point x="234" y="1364" type="curve"/>
      <point x="122" y="656" type="line"/>
      <point x="332" y="656" type="line"/>
      <point x="482" y="1607" type="line"/>
    </contour>
  </outline>
</glyph>
<glyph name="ordmasculine" format="1">
  <advance width="813"/>
  <unicode hex="00BA"/>
  <outline>
    <contour>
      <point x="333" y="779" type="curve" smooth="yes"/>
      <point x="572" y="779"/>
      <point x="710" y="907"/>
      <point x="748" y="1149" type="curve" smooth="yes"/>
      <point x="824" y="1627" type="line" smooth="yes"/>
      <point x="859" y="1852"/>
      <point x="749" y="1997"/>
      <point x="526" y="1997" type="curve" smooth="yes"/>
      <point x="523" y="1997" type="line" smooth="yes"/>
      <point x="302" y="1997"/>
      <point x="147" y="1848"/>
      <point x="112" y="1627" type="curve" smooth="yes"/>
      <point x="36" y="1149" type="line" smooth="yes"/>
      <point x="-2" y="902"/>
      <point x="96" y="779"/>
    </contour>
    <contour>
      <point x="316" y="1091" type="curve" smooth="yes"/>
      <point x="408" y="1672" type="line" smooth="yes"/>
      <point x="419" y="1741"/>
      <point x="446" y="1776"/>
      <point x="491" y="1776" type="curve" smooth="yes"/>
      <point x="535" y="1776"/>
      <point x="552" y="1741"/>
      <point x="541" y="1672" type="curve" smooth="yes"/>
      <point x="449" y="1091" type="line" smooth="yes"/>
      <point x="429" y="961"/>
      <point x="298" y="978"/>
    </contour>
  </outline>
</glyph>
<glyph name="guillemotright" format="1">
  <advance width="1184"/>
  <unicode hex="00BB"/>
  <outline>
    <contour>
      <point x="25" y="260" type="line"/>
      <point x="580" y="545" type="line"/>
      <point x="646" y="959" type="line"/>
      <point x="178" y="1230" type="line"/>
      <point x="121" y="871" type="line"/>
      <point x="414" y="749" type="line"/>
      <point x="82" y="618" type="line"/>
    </contour>
    <contour>
      <point x="602" y="260" type="line"/>
      <point x="1157" y="545" type="line"/>
      <point x="1223" y="959" type="line"/>
      <point x="755" y="1230" type="line"/>
      <point x="698" y="871" type="line"/>
      <point x="991" y="749" type="line"/>
      <point x="659" y="618" type="line"/>
    </contour>
  </outline>
</glyph>
<glyph name="AE" format="1">
  <advance width="1311"/>
  <unicode hex="00C6"/>
  <outline>
    <contour>
      <point x="397" y="1760" type="line"/>
      <point x="-201" y="0" type="line"/>
      <point x="180" y="0" type="line"/>
      <point x="334" y="479" type="line"/>
      <point x="540" y="479" type="line"/>
      <point x="466" y="0" type="line"/>
      <point x="1115" y="0" type="line"/>
      <point x="1163" y="311" type="line"/>
      <point x="854" y="311" type="line"/>
      <point x="924" y="750" type="line"/>
      <point x="1196" y="750" type="line"/>
      <point x="1243" y="1049" type="line"/>
      <point x="971" y="1049" type="line"/>
      <point x="1034" y="1451" type="line"/>
      <point x="1320" y="1451" type="line"/>
      <point x="1369" y="1760" type="line"/>
    </contour>
    <contour>
      <point x="581" y="769" type="line"/>
      <point x="425" y="769" type="line"/>
      <point x="634" y="1461" type="line"/>
      <point x="691" y="1461" type="line"/>
    </contour>
    <contour>
      <point x="916" y="1760" type="move" name="top"/>
    </contour>
  </outline>
</glyph>
<glyph name="multiply" format="1">
  <advance width="710"/>
  <unicode hex="00D7"/>
  <outline>
    <contour>
      <point x="452" y="789" type="line"/>
      <point x="328" y="936" type="line"/>
      <point x="138" y="772" type="line"/>
      <point x="262" y="625" type="line"/>
      <point x="92" y="478" type="line"/>
      <point x="230" y="314" type="line"/>
      <point x="400" y="461" type="line"/>
      <point x="524" y="314" type="line"/>
      <point x="714" y="478" type="line"/>
      <point x="590" y="625" type="line"/>
      <point x="760" y="772" type="line"/>
      <point x="622" y="936" type="line"/>
    </contour>
  </outline>
</glyph>
<glyph name="Oslash" format="1">
  <advance width="988"/>
  <unicode hex="00D8"/>
  <outline>
    <contour>
      <point x="652" y="1550" type="line"/>
      <point x="755" y="1500" type="line"/>
      <point x="964" y="1971" type="line"/>
      <point x="852" y="2004" type="line"/>
    </contour>
    <contour>
      <point x="-89" y="-132" type="line"/>
      <point x="17" y="-172" type="line"/>
      <point x="194" y="230" type="line"/>
      <point x="109" y="316" type="line"/>
    </contour>
    <component base="O" xOffset="-4"/>
  </outline>
</glyph>
<glyph name="Thorn" format="1">
  <advance width="947"/>
  <unicode hex="00DE"/>
  <outline>
    <contour>
      <point x="182" y="1760" type="line"/>
      <point x="-95" y="0" type="line"/>
      <point x="251" y="0" type="line"/>
      <point x="319" y="434" type="line"/>
      <point x="462" y="434" type="line" smooth="yes"/>
      <point x="767" y="434"/>
      <point x="866" y="666"/>
      <point x="914" y="973" type="curve" smooth="yes"/>
      <point x="964" y="1291"/>
      <point x="916" y="1516"/>
      <point x="608" y="1516" type="curve" smooth="yes"/>
      <point x="488" y="1516" type="line"/>
      <point x="527" y="1760" type="line"/>
    </contour>
    <contour>
      <point x="597" y="1226"/>
      <point x="590" y="1121"/>
      <point x="567" y="979" type="curve" smooth="yes"/>
      <point x="544" y="833"/>
      <point x="528" y="721"/>
      <point x="384" y="721" type="curve" smooth="yes"/>
      <point x="364" y="721" type="line"/>
      <point x="443" y="1226" type="line"/>
      <point x="482" y="1226" type="line" smooth="yes"/>
    </contour>
  </outline>
</glyph>
<glyph name="germandbls" format="1">
  <advance width="1007"/>
  <unicode hex="00DF"/>
  <outline>
    <contour>
      <point x="-102" y="0" type="line"/>
      <point x="248" y="0" type="line"/>
      <point x="477" y="1453" type="line" smooth="yes"/>
      <point x="486" y="1504"/>
      <point x="514" y="1529"/>
      <point x="564" y="1529" type="curve" smooth="yes"/>
      <point x="614" y="1529"/>
      <point x="636" y="1504"/>
      <point x="627" y="1453" type="curve" smooth="yes"/>
      <point x="594" y="1245" type="line" smooth="yes"/>
      <point x="583" y="1177"/>
      <point x="561" y="1126"/>
      <point x="491" y="1126" type="curve"/>
      <point x="453" y="878" type="line"/>
      <point x="562" y="878"/>
      <point x="593" y="839"/>
      <point x="577" y="731" type="curve" smooth="yes"/>
      <point x="524" y="399" type="line" smooth="yes"/>
      <point x="511" y="320"/>
      <point x="457" y="281"/>
      <point x="362" y="281" type="curve"/>
      <point x="318" y="0" type="line"/>
      <point x="422" y="0" type="line" smooth="yes"/>
      <point x="722" y="0"/>
      <point x="850" y="260"/>
      <point x="898" y="559" type="curve" smooth="yes"/>
      <point x="938" y="817"/>
      <point x="922" y="980"/>
      <point x="760" y="1020" type="curve"/>
      <point x="873" y="1055"/>
      <point x="931" y="1155"/>
      <point x="953" y="1295" type="curve" smooth="yes"/>
      <point x="971" y="1412" type="line" smooth="yes"/>
      <point x="1012" y="1673"/>
      <point x="862" y="1776"/>
      <point x="603" y="1776" type="curve" smooth="yes"/>
      <point x="320" y="1776"/>
      <point x="159" y="1655"/>
      <point x="120" y="1412" type="curve" smooth="yes"/>
    </contour>
  </outline>
</glyph>
<glyph name="eth" format="1">
  <advance width="1031"/>
  <unicode hex="00F0"/>
  <outline>
    <contour>
      <point x="168" y="1546" type="line"/>
      <point x="384" y="1498"/>
      <point x="638" y="1236"/>
      <point x="626" y="951" type="curve"/>
      <point x="592" y="975"/>
      <point x="514" y="992"/>
      <point x="461" y="992" type="curve" smooth="yes"/>
      <point x="170" y="992"/>
      <point x="20" y="826"/>
      <point x="-30" y="509" type="curve" smooth="yes"/>
      <point x="-86" y="157"/>
      <point x="1" y="-16"/>
      <point x="345" y="-16" type="curve" smooth="yes"/>
      <point x="712" y="-16"/>
      <point x="856" y="161"/>
      <point x="915" y="538" type="curve" smooth="yes"/>
      <point x="956" y="799" type="line" smooth="yes"/>
      <point x="1039" y="1322"/>
      <point x="697" y="1734"/>
      <point x="298" y="1774" type="curve"/>
    </contour>
    <contour>
      <point x="530" y="420" type="line" smooth="yes"/>
      <point x="514" y="326"/>
      <point x="476" y="279"/>
      <point x="412" y="279" type="curve" smooth="yes"/>
      <point x="322" y="279"/>
      <point x="333" y="364"/>
      <point x="351" y="482" type="curve" smooth="yes"/>
      <point x="365" y="570" type="line" smooth="yes"/>
      <point x="382" y="674"/>
      <point x="418" y="726"/>
      <point x="476" y="726" type="curve" smooth="yes"/>
      <point x="543" y="726"/>
      <point x="571" y="681"/>
      <point x="557" y="591" type="curve" smooth="yes"/>
    </contour>
    <contour>
      <point x="351" y="1090" type="line"/>
      <point x="1096" y="1529" type="line"/>
      <point x="1018" y="1690" type="line"/>
      <point x="273" y="1251" type="line"/>
    </contour>
  </outline>
</glyph>
<glyph name="divide" format="1">
  <advance width="684"/>
  <unicode hex="00F7"/>
  <outline>
    <contour>
      <point x="150" y="237" type="line"/>
      <point x="448" y="237" type="line"/>
      <point x="494" y="535" type="line"/>
      <point x="196" y="535" type="line"/>
    </contour>
    <contour>
      <point x="54" y="638" type="line"/>
      <point x="670" y="638" type="line"/>
      <point x="706" y="870" type="line"/>
      <point x="90" y="870" type="line"/>
    </contour>
    <contour>
      <point x="266" y="976" type="line"/>
      <point x="564" y="976" type="line"/>
      <point x="611" y="1274" type="line"/>
      <point x="313" y="1274" type="line"/>
    </contour>
  </outline>
</glyph>
<glyph name="oslash" format="1">
  <advance width="989"/>
  <unicode hex="00F8"/>
  <outline>
    <contour>
      <point x="785" y="1403" type="line"/>
      <point x="907" y="1348" type="line"/>
      <point x="1089" y="1603" type="line"/>
      <point x="957" y="1661" type="line"/>
    </contour>
    <contour>
      <point x="-75" y="-123" type="line"/>
      <point x="53" y="-175" type="line"/>
      <point x="208" y="92" type="line"/>
      <point x="79" y="144" type="line"/>
    </contour>
    <component base="o"/>
  </outline>
</glyph>
<glyph name="thorn" format="1">
  <advance width="1007"/>
  <unicode hex="00FE"/>
  <outline>
    <contour>
      <point x="-126" y="-185" type="line"/>
      <point x="242" y="-185" type="line"/>
      <point x="296" y="160" type="line"/>
      <point x="322" y="41"/>
      <point x="383" y="-18"/>
      <point x="480" y="-18" type="curve" smooth="yes"/>
      <point x="704" y="-18"/>
      <point x="823" y="160"/>
      <point x="860" y="391" type="curve" smooth="yes"/>
      <point x="974" y="1114" type="line" smooth="yes"/>
      <point x="1013" y="1360"/>
      <point x="954" y="1519"/>
      <point x="710" y="1519" type="curve" smooth="yes"/>
      <point x="637" y="1519"/>
      <point x="565" y="1488"/>
      <point x="496" y="1427" type="curve"/>
      <point x="550" y="1769" type="line"/>
      <point x="182" y="1769" type="line"/>
    </contour>
    <contour>
      <point x="402" y="263" type="curve" smooth="yes"/>
      <point x="319" y="263"/>
      <point x="326" y="349"/>
      <point x="343" y="457" type="curve" smooth="yes"/>
      <point x="442" y="1085" type="line" smooth="yes"/>
      <point x="456" y="1175"/>
      <point x="482" y="1239"/>
      <point x="554" y="1239" type="curve" smooth="yes"/>
      <point x="624" y="1239"/>
      <point x="620" y="1171"/>
      <point x="606" y="1081" type="curve" smooth="yes"/>
      <point x="507" y="457" type="line" smooth="yes"/>
      <point x="489" y="347"/>
      <point x="481" y="263"/>
    </contour>
  </outline>
</glyph>
<glyph name="Hbar" format="1">
  <advance width="990"/>
  <unicode hex="0126"/>
  <outline>
    <contour>
      <point x="26" y="1342" type="line"/>
      <point x="1087" y="1342" type="line"/>
      <point x="1112" y="1500" type="line"/>
      <point x="51" y="1500" type="line"/>
    </contour>
    <component base="H"/>
  </outline>
</glyph>
<glyph name="dotlessi" format="1">
  <advance width="482"/>
  <unicode hex="0131"/>
  <outline>
    <contour>
      <point x="182" y="1500" type="line"/>
      <point x="-54" y="0" type="line"/>
      <point x="304" y="0" type="line"/>
      <point x="540" y="1500" type="line"/>
    </contour>
    <contour>
      <point x="367" y="1500" type="move" name="top"/>
    </contour>
    <contour>
      <point x="114" y="0" type="move" name="ogonek"/>
    </contour>
  </outline>
</glyph>
<glyph name="kgreenlandic" format="1">
  <advance width="999"/>
  <unicode hex="0138"/>
  <outline>
    <contour>
      <point x="708" y="1500" type="line"/>
      <point x="449" y="950" type="line"/>
      <point x="536" y="1500" type="line"/>
      <point x="182" y="1500" type="line"/>
      <point x="-54" y="0" type="line"/>
      <point x="300" y="0" type="line"/>
      <point x="406" y="674" type="line"/>
      <point x="523" y="0" type="line"/>
      <point x="904" y="0" type="line"/>
      <point x="746" y="815" type="line"/>
      <point x="1079" y="1500" type="line"/>
    </contour>
  </outline>
</glyph>
<glyph name="OE" format="1">
  <advance width="1330"/>
  <unicode hex="0152"/>
  <outline>
    <contour>
      <point x="449" y="0" type="curve" smooth="yes"/>
      <point x="1134" y="0" type="line"/>
      <point x="1182" y="311" type="line"/>
      <point x="822" y="311" type="line"/>
      <point x="897" y="784" type="line"/>
      <point x="1220" y="784" type="line"/>
      <point x="1267" y="1083" type="line"/>
      <point x="944" y="1083" type="line"/>
      <point x="1002" y="1451" type="line"/>
      <point x="1339" y="1451" type="line"/>
      <point x="1388" y="1760" type="line"/>
      <point x="718" y="1760" type="line" smooth="yes"/>
      <point x="393" y="1760"/>
      <point x="155" y="1665"/>
      <point x="106" y="1356" type="curve" smooth="yes"/>
      <point x="-39" y="430" type="line" smooth="yes"/>
      <point x="-85" y="143"/>
      <point x="78" y="0"/>
    </contour>
    <contour>
      <point x="404" y="311" type="line" smooth="yes"/>
      <point x="322" y="311"/>
      <point x="301" y="387"/>
      <point x="316" y="480" type="curve" smooth="yes"/>
      <point x="447" y="1314" type="line" smooth="yes"/>
      <point x="461" y="1399"/>
      <point x="511" y="1451"/>
      <point x="590" y="1451" type="curve" smooth="yes"/>
      <point x="645" y="1451" type="line"/>
      <point x="465" y="311" type="line"/>
    </contour>
  </outline>
</glyph>
<glyph name="oe" format="1">
  <advance width="1513"/>
  <unicode hex="0153"/>
  <outline>
    <contour>
      <point x="1039" y="1518"/>
      <point x="944" y="1486"/>
      <point x="866" y="1422" type="curve"/>
      <point x="801" y="1486"/>
      <point x="718" y="1518"/>
      <point x="616" y="1518" type="curve" smooth="yes"/>
      <point x="336" y="1518"/>
      <point x="139" y="1333"/>
      <point x="95" y="1051" type="curve" smooth="yes"/>
      <point x="0" y="449" type="line" smooth="yes"/>
      <point x="-49" y="138"/>
      <point x="74" y="-18"/>
      <point x="373" y="-18" type="curve" smooth="yes"/>
      <point x="483" y="-18"/>
      <point x="578" y="11"/>
      <point x="657" y="69" type="curve"/>
      <point x="711" y="11"/>
      <point x="788" y="-18"/>
      <point x="889" y="-18" type="curve" smooth="yes"/>
      <point x="1229" y="-18"/>
      <point x="1367" y="157"/>
      <point x="1420" y="494" type="curve" smooth="yes"/>
      <point x="1434" y="579" type="line"/>
      <point x="1078" y="579" type="line"/>
      <point x="1078" y="574"/>
      <point x="1074" y="542"/>
      <point x="1065" y="483" type="curve" smooth="yes"/>
      <point x="1051" y="395"/>
      <point x="1032" y="260"/>
      <point x="946" y="260" type="curve" smooth="yes"/>
      <point x="866" y="260"/>
      <point x="872" y="346"/>
      <point x="885" y="427" type="curve" smooth="yes"/>
      <point x="887" y="439"/>
      <point x="895" y="482"/>
      <point x="896" y="494" type="curve" smooth="yes"/>
      <point x="930" y="704" type="line"/>
      <point x="1450" y="704" type="line"/>
      <point x="1460" y="755"/>
      <point x="1477" y="848"/>
      <point x="1497" y="983" type="curve" smooth="yes"/>
      <point x="1515" y="1092" type="line" smooth="yes"/>
      <point x="1560" y="1376"/>
      <point x="1438" y="1518"/>
      <point x="1150" y="1518" type="curve" smooth="yes"/>
    </contour>
    <contour>
      <point x="628" y="1239"/>
      <point x="649" y="1195"/>
      <point x="636" y="1108" type="curve" smooth="yes"/>
      <point x="520" y="375" type="line" smooth="yes"/>
      <point x="509" y="308"/>
      <point x="478" y="260"/>
      <point x="418" y="260" type="curve" smooth="yes"/>
      <point x="358" y="260"/>
      <point x="341" y="308"/>
      <point x="352" y="375" type="curve" smooth="yes"/>
      <point x="468" y="1108" type="line" smooth="yes"/>
      <point x="481" y="1195"/>
      <point x="516" y="1239"/>
      <point x="572" y="1239" type="curve" smooth="yes"/>
    </contour>
    <contour>
      <point x="1157" y="1249"/>
      <point x="1175" y="1195"/>
      <point x="1158" y="1087" type="curve" smooth="yes"/>
      <point x="1134" y="931" type="line"/>
      <point x="966" y="931" type="line"/>
      <point x="969" y="955"/>
      <point x="979" y="1033"/>
      <point x="983" y="1057" type="curve" smooth="yes"/>
      <point x="997" y="1146"/>
      <point x="1017" y="1249"/>
      <point x="1104" y="1249" type="curve" smooth="yes"/>
    </contour>
  </outline>
</glyph>
<glyph name="Schwa" format="1">
  <advance width="1000"/>
  <unicode hex="018F"/>
  <outline>
    <contour>
      <point x="642" y="-16"/>
      <point x="799" y="171"/>
      <point x="853" y="512" type="curve" smooth="yes"/>
      <point x="981" y="1324" type="line" smooth="yes"/>
      <point x="1025" y="1609"/>
      <point x="883" y="1776"/>
      <point x="628" y="1776" type="curve" smooth="yes"/>
      <point x="348" y="1776"/>
      <point x="163" y="1644"/>
      <point x="115" y="1335" type="curve" smooth="yes"/>
      <point x="75" y="1087" type="line"/>
      <point x="429" y="1087" type="line"/>
      <point x="466" y="1319" type="line" smooth="yes"/>
      <point x="479" y="1398"/>
      <point x="509" y="1452"/>
      <point x="569" y="1452" type="curve" smooth="yes"/>
      <point x="623" y="1452"/>
      <point x="646" y="1416"/>
      <point x="631" y="1319" type="curve" smooth="yes"/>
      <point x="492" y="438" type="line" smooth="yes"/>
      <point x="480" y="360"/>
      <point x="454" y="308"/>
      <point x="389" y="308" type="curve" smooth="yes"/>
      <point x="333" y="308"/>
      <point x="311" y="337"/>
      <point x="327" y="442" type="curve" smooth="yes"/>
      <point x="398" y="890" type="line"/>
      <point x="48" y="890" type="line"/>
      <point x="-29" y="398" type="line" smooth="yes"/>
      <point x="-73" y="121"/>
      <point x="87" y="-16"/>
      <point x="337" y="-16" type="curve" smooth="yes"/>
    </contour>
    <contour>
      <point x="122" y="614" type="line"/>
      <point x="679" y="614" type="line"/>
      <point x="723" y="890" type="line"/>
      <point x="166" y="890" type="line"/>
    </contour>
  </outline>
</glyph>
<glyph name="schwa" format="1">
  <advance width="1000"/>
  <unicode hex="0259"/>
  <outline>
    <contour>
      <point x="649" y="-16"/>
      <point x="842" y="129"/>
      <point x="885" y="408" type="curve" smooth="yes"/>
      <point x="980" y="1011" type="line" smooth="yes"/>
      <point x="1031" y="1330"/>
      <point x="949" y="1516"/>
      <point x="628" y="1516" type="curve" smooth="yes"/>
      <point x="288" y="1516"/>
      <point x="151" y="1343"/>
      <point x="97" y="1006" type="curve" smooth="yes"/>
      <point x="84" y="921" type="line"/>
      <point x="440" y="921" type="line"/>
      <point x="463" y="1065" type="line" smooth="yes"/>
      <point x="476" y="1150"/>
      <point x="486" y="1240"/>
      <point x="572" y="1240" type="curve" smooth="yes"/>
      <point x="652" y="1240"/>
      <point x="645" y="1154"/>
      <point x="633" y="1073" type="curve" smooth="yes"/>
      <point x="586" y="783" type="line"/>
      <point x="66" y="783" type="line"/>
      <point x="56" y="732"/>
      <point x="42" y="652"/>
      <point x="20" y="517" type="curve" smooth="yes"/>
      <point x="3" y="408" type="line" smooth="yes"/>
      <point x="-42" y="124"/>
      <point x="81" y="-16"/>
      <point x="369" y="-16" type="curve" smooth="yes"/>
    </contour>
    <contour>
      <point x="362" y="251"/>
      <point x="343" y="305"/>
      <point x="360" y="413" type="curve" smooth="yes"/>
      <point x="390" y="605" type="line"/>
      <point x="560" y="605" type="line"/>
      <point x="530" y="413" type="line" smooth="yes"/>
      <point x="513" y="301"/>
      <point x="472" y="251"/>
      <point x="415" y="251" type="curve" smooth="yes"/>
    </contour>
  </outline>
</glyph>
<glyph name="apostrophemod" format="1">
  <advance width="600"/>
  <unicode hex="02BC"/>
  <outline>
    <contour>
      <point x="218" y="966" type="line"/>
      <point x="429" y="966" type="line"/>
      <point x="571" y="1211" type="line"/>
      <point x="616" y="1500" type="line"/>
      <point x="242" y="1500" type="line"/>
      <point x="195" y="1202" type="line"/>
      <point x="322" y="1202" type="line"/>
    </contour>
  </outline>
</glyph>
<glyph name="uni02C9" format="1">
  <advance width="600"/>
  <unicode hex="02C9"/>
  <outline>
    <contour>
      <point x="71" y="1598" type="line"/>
      <point x="721" y="1598" type="line"/>
      <point x="745" y="1751" type="line"/>
      <point x="95" y="1751" type="line"/>
    </contour>
  </outline>
</glyph>
<glyph name="dotaccent" format="1">
  <advance width="491"/>
  <unicode hex="02D9"/>
  <outline>
    <contour>
      <point x="61" y="1592" type="line"/>
      <point x="419" y="1592" type="line"/>
      <point x="466" y="1890" type="line"/>
      <point x="108" y="1890" type="line"/>
    </contour>
    <contour>
      <point x="244" y="1500" type="move" name="_top"/>
    </contour>
  </outline>
</glyph>
<glyph name="ring" format="1">
  <advance width="804"/>
  <unicode hex="02DA"/>
  <outline>
    <contour>
      <point x="450" y="1772" type="curve" smooth="yes"/>
      <point x="361" y="1772"/>
      <point x="319" y="1842"/>
      <point x="332" y="1929" type="curve" smooth="yes"/>
      <point x="346" y="2016"/>
      <point x="411" y="2086"/>
      <point x="500" y="2086" type="curve" smooth="yes"/>
      <point x="589" y="2086"/>
      <point x="630" y="2016"/>
      <point x="616" y="1929" type="curve" smooth="yes"/>
      <point x="603" y="1842"/>
      <point x="539" y="1772"/>
    </contour>
    <contour>
      <point x="420" y="1591" type="curve" smooth="yes"/>
      <point x="634" y="1591"/>
      <point x="795" y="1718"/>
      <point x="827" y="1929" type="curve" smooth="yes"/>
      <point x="861" y="2140"/>
      <point x="741" y="2267"/>
      <point x="527" y="2267" type="curve" smooth="yes"/>
      <point x="313" y="2267"/>
      <point x="154" y="2140"/>
      <point x="120" y="1929" type="curve" smooth="yes"/>
      <point x="87" y="1717"/>
      <point x="206" y="1591"/>
    </contour>
    <contour>
      <point x="410" y="1500" type="move" name="_top"/>
    </contour>
  </outline>
</glyph>
<glyph name="ogonek" format="1">
  <advance width="1015"/>
  <unicode hex="02DB"/>
  <outline>
    <contour>
      <point x="690" y="0" type="line"/>
      <point x="499" y="-99"/>
      <point x="393" y="-209"/>
      <point x="373" y="-330" type="curve" smooth="yes"/>
      <point x="344" y="-519"/>
      <point x="484" y="-631"/>
      <point x="675" y="-631" type="curve" smooth="yes"/>
      <point x="743" y="-631"/>
      <point x="810" y="-618"/>
      <point x="878" y="-591" type="curve"/>
      <point x="914" y="-368" type="line"/>
      <point x="868" y="-383"/>
      <point x="827" y="-391"/>
      <point x="794" y="-391" type="curve" smooth="yes"/>
      <point x="721" y="-391"/>
      <point x="686" y="-354"/>
      <point x="697" y="-279" type="curve" smooth="yes"/>
      <point x="714" y="-169"/>
      <point x="813" y="-90"/>
      <point x="901" y="0" type="curve"/>
    </contour>
    <contour>
      <point x="789" y="0" type="move" name="_ogonek"/>
    </contour>
  </outline>
</glyph>
<glyph name="tilde" format="1">
  <advance width="1015"/>
  <unicode hex="02DC"/>
  <outline>
    <contour>
      <point x="284" y="1974"/>
      <point x="206" y="1863"/>
      <point x="132" y="1731" type="curve"/>
      <point x="281" y="1645" type="line"/>
      <point x="317" y="1701"/>
      <point x="354" y="1720"/>
      <point x="393" y="1720" type="curve" smooth="yes"/>
      <point x="481" y="1720"/>
      <point x="584" y="1620"/>
      <point x="747" y="1620" type="curve" smooth="yes"/>
      <point x="912" y="1620"/>
      <point x="985" y="1758"/>
      <point x="1064" y="1905" type="curve"/>
      <point x="891" y="1965" type="line"/>
      <point x="852" y="1904"/>
      <point x="816" y="1883"/>
      <point x="776" y="1883" type="curve" smooth="yes"/>
      <point x="693" y="1883"/>
      <point x="596" y="1974"/>
      <point x="440" y="1974" type="curve" smooth="yes"/>
    </contour>
    <contour>
      <point x="539" y="1500" type="move" name="_top"/>
    </contour>
  </outline>
</glyph>
<glyph name="uni030F" format="1">
  <advance width="825"/>
  <unicode hex="030F"/>
  <outline>
    <contour>
      <point x="312" y="1586" type="line"/>
      <point x="487" y="1644" type="line"/>
      <point x="342" y="2123" type="line"/>
      <point x="91" y="2015" type="line"/>
    </contour>
    <contour>
      <point x="614" y="1586" type="line"/>
      <point x="789" y="1644" type="line"/>
      <point x="681" y="2123" type="line"/>
      <point x="434" y="2015" type="line"/>
    </contour>
    <contour>
      <point x="516" y="1500" type="move" name="_top"/>
    </contour>
  </outline>
</glyph>
<glyph name="uni0311" format="1">
  <advance width="1005"/>
  <unicode hex="0311"/>
  <outline>
    <contour>
      <point x="942" y="1623"/>
      <point x="945" y="1635"/>
      <point x="946" y="1642" type="curve" smooth="yes"/>
      <point x="981" y="1865"/>
      <point x="861" y="1960"/>
      <point x="621" y="1960" type="curve" smooth="yes"/>
      <point x="387" y="1960"/>
      <point x="234" y="1866"/>
      <point x="200" y="1649" type="curve" smooth="yes"/>
      <point x="198" y="1635"/>
      <point x="196" y="1621"/>
      <point x="197" y="1607" type="curve"/>
      <point x="433" y="1608" type="line"/>
      <point x="447" y="1698"/>
      <point x="511" y="1742"/>
      <point x="588" y="1742" type="curve" smooth="yes"/>
      <point x="666" y="1742"/>
      <point x="717" y="1698"/>
      <point x="703" y="1608" type="curve"/>
      <point x="939" y="1607" type="line"/>
    </contour>
    <contour>
      <point x="546" y="1500" type="move" name="_top"/>
    </contour>
  </outline>
</glyph>
<glyph name="commaaccent" format="1">
  <advance width="600"/>
  <unicode hex="0326"/>
  <outline>
    <contour>
      <point x="115" y="-141" type="line"/>
      <point x="68" y="-439" type="line"/>
      <point x="195" y="-439" type="line"/>
      <point x="91" y="-675" type="line"/>
      <point x="302" y="-675" type="line"/>
      <point x="444" y="-430" type="line"/>
      <point x="489" y="-141" type="line"/>
    </contour>
    <contour>
      <point x="336" y="0" type="move" name="_bot"/>
    </contour>
  </outline>
</glyph>
<glyph name="dotaboverightcomb" format="1">
  <advance width="600"/>
  <unicode hex="0358"/>
  <outline>
    <contour>
      <point x="140" y="1592" type="line"/>
      <point x="498" y="1592" type="line"/>
      <point x="545" y="1890" type="line"/>
      <point x="187" y="1890" type="line"/>
    </contour>
  </outline>
</glyph>
<glyph name="Omega" format="1">
  <advance width="992"/>
  <unicode hex="03A9"/>
  <outline>
    <contour>
      <point x="-86" y="0" type="line"/>
      <point x="330" y="0" type="line"/>
      <point x="369" y="247" type="line"/>
      <point x="310" y="282"/>
      <point x="347" y="441"/>
      <point x="369" y="581" type="curve" smooth="yes"/>
      <point x="468" y="1211" type="line" smooth="yes"/>
      <point x="480" y="1281"/>
      <point x="505" y="1335"/>
      <point x="574" y="1335" type="curve" smooth="yes"/>
      <point x="643" y="1335"/>
      <point x="650" y="1281"/>
      <point x="638" y="1211" type="curve" smooth="yes"/>
      <point x="539" y="581" type="line" smooth="yes"/>
      <point x="516" y="431"/>
      <point x="516" y="285"/>
      <point x="435" y="247" type="curve"/>
      <point x="396" y="0" type="line"/>
      <point x="812" y="0" type="line"/>
      <point x="850" y="246" type="line"/>
      <point x="728" y="246" type="line"/>
      <point x="809" y="345"/>
      <point x="865" y="499"/>
      <point x="899" y="710" type="curve" smooth="yes"/>
      <point x="974" y="1189" type="line" smooth="yes"/>
      <point x="1017" y="1462"/>
      <point x="894" y="1607"/>
      <point x="616" y="1607" type="curve" smooth="yes"/>
      <point x="338" y="1607"/>
      <point x="169" y="1462"/>
      <point x="126" y="1189" type="curve" smooth="yes"/>
      <point x="51" y="710" type="line" smooth="yes"/>
      <point x="17" y="499"/>
      <point x="25" y="345"/>
      <point x="74" y="246" type="curve"/>
      <point x="-48" y="246" type="line"/>
    </contour>
  </outline>
</glyph>
<glyph name="pi" format="1">
  <advance width="1241"/>
  <unicode hex="03C0"/>
  <outline>
    <contour>
      <point x="1134" y="1178" type="line"/>
      <point x="1275" y="1178" type="line"/>
      <point x="1326" y="1500" type="line"/>
      <point x="157" y="1500" type="line"/>
      <point x="106" y="1178" type="line"/>
      <point x="244" y="1178" type="line"/>
      <point x="59" y="0" type="line"/>
      <point x="417" y="0" type="line"/>
      <point x="602" y="1178" type="line"/>
      <point x="779" y="1178" type="line"/>
      <point x="604" y="0" type="line"/>
      <point x="953" y="0" type="line"/>
    </contour>
  </outline>
</glyph>
<glyph name="emdash" format="1">
  <advance width="1153"/>
  <unicode hex="2014"/>
  <outline>
    <contour>
      <point x="180" y="741" type="line"/>
      <point x="144" y="509" type="line"/>
      <point x="1176" y="509" type="line"/>
      <point x="1212" y="741" type="line"/>
    </contour>
  </outline>
</glyph>
<glyph name="quoteleft" format="1">
  <advance width="481"/>
  <unicode hex="2018"/>
  <outline>
    <contour>
      <point x="276" y="1760" type="line"/>
      <point x="135" y="1515" type="line"/>
      <point x="89" y="1226" type="line"/>
      <point x="463" y="1226" type="line"/>
      <point x="511" y="1524" type="line"/>
      <point x="384" y="1524" type="line"/>
      <point x="487" y="1760" type="line"/>
    </contour>
  </outline>
</glyph>
<glyph name="quoteright" format="1">
  <advance width="475"/>
  <unicode hex="2019"/>
  <outline>
    <contour>
      <point x="170" y="1778" type="line"/>
      <point x="123" y="1480" type="line"/>
      <point x="250" y="1480" type="line"/>
      <point x="146" y="1244" type="line"/>
      <point x="357" y="1244" type="line"/>
      <point x="499" y="1489" type="line"/>
      <point x="544" y="1778" type="line"/>
    </contour>
  </outline>
</glyph>
<glyph name="quotesinglbase" format="1">
  <advance width="484"/>
  <unicode hex="201A"/>
  <outline>
    <contour>
      <point x="175" y="298" type="line"/>
      <point x="128" y="0" type="line"/>
      <point x="255" y="0" type="line"/>
      <point x="151" y="-236" type="line"/>
      <point x="362" y="-236" type="line"/>
      <point x="504" y="9" type="line"/>
      <point x="549" y="298" type="line"/>
    </contour>
  </outline>
</glyph>
<glyph name="quotedblright" format="1">
  <advance width="948"/>
  <unicode hex="201D"/>
  <outline>
    <contour>
      <point x="643" y="1760" type="line"/>
      <point x="596" y="1462" type="line"/>
      <point x="723" y="1462" type="line"/>
      <point x="619" y="1226" type="line"/>
      <point x="830" y="1226" type="line"/>
      <point x="972" y="1471" type="line"/>
      <point x="1017" y="1760" type="line"/>
    </contour>
    <contour>
      <point x="170" y="1760" type="line"/>
      <point x="123" y="1462" type="line"/>
      <point x="250" y="1462" type="line"/>
      <point x="146" y="1226" type="line"/>
      <point x="357" y="1226" type="line"/>
      <point x="499" y="1471" type="line"/>
      <point x="544" y="1760" type="line"/>
    </contour>
  </outline>
</glyph>
<glyph name="dagger" format="1">
  <advance width="789"/>
  <unicode hex="2020"/>
  <outline>
    <contour>
      <point x="334" y="1592" type="line"/>
      <point x="287" y="1292" type="line"/>
      <point x="104" y="1292" type="line"/>
      <point x="57" y="996" type="line"/>
      <point x="240" y="996" type="line"/>
      <point x="83" y="0" type="line"/>
      <point x="447" y="0" type="line"/>
      <point x="604" y="996" type="line"/>
      <point x="784" y="996" type="line"/>
      <point x="831" y="1292" type="line"/>
      <point x="651" y="1292" type="line"/>
      <point x="698" y="1592" type="line"/>
    </contour>
  </outline>
</glyph>
<glyph name="bullet" format="1">
  <advance width="721"/>
  <unicode hex="2022"/>
  <outline>
    <contour>
      <point x="373" y="403" type="curve" smooth="yes"/>
      <point x="572" y="403"/>
      <point x="709" y="539"/>
      <point x="740" y="741" type="curve" smooth="yes"/>
      <point x="772" y="943"/>
      <point x="679" y="1079"/>
      <point x="480" y="1079" type="curve" smooth="yes"/>
      <point x="281" y="1079"/>
      <point x="145" y="943"/>
      <point x="113" y="741" type="curve" smooth="yes"/>
      <point x="82" y="539"/>
      <point x="174" y="403"/>
    </contour>
  </outline>
</glyph>
<glyph name="ellipsis" format="1">
  <advance width="1450"/>
  <unicode hex="2026"/>
  <outline>
    <contour>
      <point x="1157" y="299" type="line"/>
      <point x="1110" y="1" type="line"/>
      <point x="1468" y="1" type="line"/>
      <point x="1515" y="299" type="line"/>
    </contour>
    <contour>
      <point x="175" y="299" type="line"/>
      <point x="128" y="1" type="line"/>
      <point x="486" y="1" type="line"/>
      <point x="533" y="299" type="line"/>
    </contour>
    <contour>
      <point x="666" y="299" type="line"/>
      <point x="619" y="1" type="line"/>
      <point x="977" y="1" type="line"/>
      <point x="1024" y="299" type="line"/>
    </contour>
  </outline>
</glyph>
<glyph name="perthousand" format="1">
  <advance width="3031"/>
  <unicode hex="2030"/>
  <outline>
    <contour>
      <point x="399" y="790" type="curve" smooth="yes"/>
      <point x="347" y="790"/>
      <point x="312" y="833"/>
      <point x="321" y="889" type="curve" smooth="yes"/>
      <point x="398" y="1375" type="line" smooth="yes"/>
      <point x="410" y="1452"/>
      <point x="433" y="1502"/>
      <point x="511" y="1502" type="curve" smooth="yes"/>
      <point x="589" y="1502"/>
      <point x="596" y="1453"/>
      <point x="584" y="1375" type="curve" smooth="yes"/>
      <point x="507" y="889" type="line" smooth="yes"/>
      <point x="498" y="833"/>
      <point x="451" y="790"/>
    </contour>
    <contour>
      <point x="358" y="528" type="curve" smooth="yes"/>
      <point x="607" y="528"/>
      <point x="775" y="693"/>
      <point x="815" y="948" type="curve" smooth="yes"/>
      <point x="873" y="1311" type="line" smooth="yes"/>
      <point x="915" y="1580"/>
      <point x="810" y="1729"/>
      <point x="547" y="1729" type="curve" smooth="yes"/>
      <point x="284" y="1729"/>
      <point x="132" y="1580"/>
      <point x="90" y="1311" type="curve" smooth="yes"/>
      <point x="32" y="948" type="line" smooth="yes"/>
      <point x="-8" y="693"/>
      <point x="110" y="528"/>
    </contour>
    <contour>
      <point x="1610" y="244" type="curve" smooth="yes"/>
      <point x="1558" y="244"/>
      <point x="1523" y="287"/>
      <point x="1532" y="343" type="curve" smooth="yes"/>
      <point x="1609" y="829" type="line" smooth="yes"/>
      <point x="1621" y="906"/>
      <point x="1644" y="956"/>
      <point x="1722" y="956" type="curve" smooth="yes"/>
      <point x="1800" y="956"/>
      <point x="1807" y="907"/>
      <point x="1795" y="829" type="curve" smooth="yes"/>
      <point x="1718" y="343" type="line" smooth="yes"/>
      <point x="1709" y="287"/>
      <point x="1662" y="244"/>
    </contour>
    <contour>
      <point x="1569" y="-18" type="curve" smooth="yes"/>
      <point x="1818" y="-18"/>
      <point x="1986" y="147"/>
      <point x="2026" y="402" type="curve" smooth="yes"/>
      <point x="2084" y="765" type="line" smooth="yes"/>
      <point x="2126" y="1034"/>
      <point x="2021" y="1183"/>
      <point x="1758" y="1183" type="curve" smooth="yes"/>
      <point x="1495" y="1183"/>
      <point x="1343" y="1034"/>
      <point x="1301" y="765" type="curve" smooth="yes"/>
      <point x="1243" y="402" type="line" smooth="yes"/>
      <point x="1203" y="147"/>
      <point x="1321" y="-18"/>
    </contour>
    <contour>
      <point x="2477" y="244" type="curve" smooth="yes"/>
      <point x="2425" y="244"/>
      <point x="2390" y="287"/>
      <point x="2399" y="343" type="curve" smooth="yes"/>
      <point x="2476" y="829" type="line" smooth="yes"/>
      <point x="2488" y="906"/>
      <point x="2511" y="956"/>
      <point x="2589" y="956" type="curve" smooth="yes"/>
      <point x="2667" y="956"/>
      <point x="2674" y="907"/>
      <point x="2662" y="829" type="curve" smooth="yes"/>
      <point x="2585" y="343" type="line" smooth="yes"/>
      <point x="2576" y="287"/>
      <point x="2529" y="244"/>
    </contour>
    <contour>
      <point x="2436" y="-18" type="curve" smooth="yes"/>
      <point x="2685" y="-18"/>
      <point x="2853" y="147"/>
      <point x="2893" y="402" type="curve" smooth="yes"/>
      <point x="2951" y="765" type="line" smooth="yes"/>
      <point x="2993" y="1034"/>
      <point x="2888" y="1183"/>
      <point x="2625" y="1183" type="curve" smooth="yes"/>
      <point x="2362" y="1183"/>
      <point x="2210" y="1034"/>
      <point x="2168" y="765" type="curve" smooth="yes"/>
      <point x="2110" y="402" type="line" smooth="yes"/>
      <point x="2070" y="147"/>
      <point x="2188" y="-18"/>
    </contour>
    <contour>
      <point x="501" y="0" type="line"/>
      <point x="824" y="0" type="line"/>
      <point x="1644" y="1767" type="line"/>
      <point x="1320" y="1767" type="line"/>
    </contour>
  </outline>
</glyph>
<glyph name="guilsinglleft" format="1">
  <advance width="606"/>
  <unicode hex="2039"/>
  <outline>
    <contour>
      <point x="515" y="260" type="line"/>
      <point x="572" y="618" type="line"/>
      <point x="280" y="749" type="line"/>
      <point x="611" y="871" type="line"/>
      <point x="668" y="1230" type="line"/>
      <point x="116" y="959" type="line"/>
      <point x="50" y="545" type="line"/>
    </contour>
  </outline>
</glyph>
<glyph name="fraction" format="1">
  <advance width="829"/>
  <unicode hex="2044"/>
  <outline>
    <contour>
      <point x="639" y="1767" type="line"/>
      <point x="-130" y="0" type="line"/>
      <point x="153" y="0" type="line"/>
      <point x="923" y="1767" type="line"/>
    </contour>
  </outline>
</glyph>
<glyph name="euro" format="1">
  <advance width="1075"/>
  <unicode hex="20AC"/>
  <outline>
    <contour>
      <point x="412" y="1776"/>
      <point x="232" y="1599"/>
      <point x="182" y="1278" type="curve" smooth="yes"/>
      <point x="164" y="1168" type="line"/>
      <point x="64" y="1168" type="line"/>
      <point x="35" y="984" type="line"/>
      <point x="135" y="984" type="line"/>
      <point x="111" y="833" type="line"/>
      <point x="11" y="833" type="line"/>
      <point x="-17" y="651" type="line"/>
      <point x="83" y="651" type="line"/>
      <point x="56" y="484" type="line" smooth="yes"/>
      <point x="8" y="181"/>
      <point x="145" y="-16"/>
      <point x="443" y="-16" type="curve" smooth="yes"/>
      <point x="726" y="-16"/>
      <point x="910" y="188"/>
      <point x="958" y="477" type="curve"/>
      <point x="607" y="471" type="line"/>
      <point x="604" y="449" type="line" smooth="yes"/>
      <point x="595" y="388"/>
      <point x="553" y="332"/>
      <point x="499" y="332" type="curve" smooth="yes"/>
      <point x="445" y="332"/>
      <point x="421" y="388"/>
      <point x="430" y="449" type="curve" smooth="yes"/>
      <point x="462" y="651" type="line"/>
      <point x="777" y="651" type="line"/>
      <point x="805" y="833" type="line"/>
      <point x="490" y="833" type="line"/>
      <point x="514" y="984" type="line"/>
      <point x="829" y="984" type="line"/>
      <point x="858" y="1168" type="line"/>
      <point x="543" y="1168" type="line"/>
      <point x="567" y="1320" type="line" smooth="yes"/>
      <point x="580" y="1400"/>
      <point x="598" y="1471"/>
      <point x="678" y="1471" type="curve" smooth="yes"/>
      <point x="758" y="1471"/>
      <point x="754" y="1400"/>
      <point x="741" y="1320" type="curve" smooth="yes"/>
      <point x="737" y="1293" type="line"/>
      <point x="1086" y="1292" type="line"/>
      <point x="1129" y="1596"/>
      <point x="1024" y="1776"/>
      <point x="726" y="1776" type="curve" smooth="yes"/>
    </contour>
  </outline>
</glyph>
<glyph name="partialdiff" format="1">
  <advance width="1072"/>
  <unicode hex="2202"/>
  <outline>
    <contour>
      <point x="298" y="-21" type="curve" smooth="yes"/>
      <point x="521" y="-21"/>
      <point x="674" y="54"/>
      <point x="776" y="196" type="curve" smooth="yes"/>
      <point x="888" y="354"/>
      <point x="1054" y="1074"/>
      <point x="1068" y="1159" type="curve" smooth="yes"/>
      <point x="1118" y="1479"/>
      <point x="1048" y="1681"/>
      <point x="739" y="1681" type="curve" smooth="yes"/>
      <point x="633" y="1681"/>
      <point x="499" y="1656"/>
      <point x="337" y="1607" type="curve"/>
      <point x="355" y="1376" type="line"/>
      <point x="409" y="1396"/>
      <point x="510" y="1415"/>
      <point x="585" y="1415" type="curve" smooth="yes"/>
      <point x="704" y="1415"/>
      <point x="726" y="1306"/>
      <point x="704" y="1164" type="curve" smooth="yes"/>
      <point x="699" y="1132"/>
      <point x="688" y="1093"/>
      <point x="674" y="1047" type="curve"/>
      <point x="601" y="1073"/>
      <point x="534" y="1086"/>
      <point x="471" y="1086" type="curve" smooth="yes"/>
      <point x="149" y="1086"/>
      <point x="8" y="735"/>
      <point x="-43" y="413" type="curve" smooth="yes"/>
      <point x="-88" y="127"/>
      <point x="10" y="-21"/>
    </contour>
    <contour>
      <point x="392" y="293" type="curve" smooth="yes"/>
      <point x="334" y="293"/>
      <point x="324" y="332"/>
      <point x="334" y="391" type="curve" smooth="yes"/>
      <point x="337" y="411"/>
      <point x="344" y="439"/>
      <point x="353" y="475" type="curve" smooth="yes"/>
      <point x="397" y="645" type="line" smooth="yes"/>
      <point x="422" y="744"/>
      <point x="461" y="794"/>
      <point x="514" y="794" type="curve" smooth="yes"/>
      <point x="540" y="794"/>
      <point x="568" y="782"/>
      <point x="597" y="759" type="curve"/>
      <point x="512" y="419" type="line" smooth="yes"/>
      <point x="494" y="349"/>
      <point x="458" y="293"/>
    </contour>
  </outline>
</glyph>
<glyph name="emptyset" format="1">
  <advance width="1386"/>
  <unicode hex="2205"/>
  <outline>
    <contour>
      <point x="604" y="205" type="curve" smooth="yes"/>
      <point x="977" y="205"/>
      <point x="1306" y="489"/>
      <point x="1364" y="862" type="curve" smooth="yes"/>
      <point x="1390" y="1019"/>
      <point x="1360" y="1161"/>
      <point x="1292" y="1272" type="curve"/>
      <point x="1455" y="1413" type="line"/>
      <point x="1383" y="1499" type="line"/>
      <point x="1222" y="1360" type="line"/>
      <point x="1123" y="1460"/>
      <point x="981" y="1519"/>
      <point x="811" y="1519" type="curve" smooth="yes"/>
      <point x="438" y="1519"/>
      <point x="109" y="1235"/>
      <point x="50" y="862" type="curve" smooth="yes"/>
      <point x="23" y="692"/>
      <point x="59" y="540"/>
      <point x="140" y="426" type="curve"/>
      <point x="-6" y="300" type="line"/>
      <point x="67" y="214" type="line"/>
      <point x="216" y="342" type="line"/>
      <point x="313" y="256"/>
      <point x="446" y="205"/>
    </contour>
    <contour>
      <point x="262" y="531" type="line"/>
      <point x="210" y="622"/>
      <point x="190" y="737"/>
      <point x="209" y="862" type="curve"/>
      <point x="255" y="1153"/>
      <point x="501" y="1390"/>
      <point x="790" y="1390" type="curve" smooth="yes"/>
      <point x="923" y="1390"/>
      <point x="1031" y="1340"/>
      <point x="1104" y="1258" type="curve"/>
    </contour>
    <contour>
      <point x="625" y="334" type="curve" smooth="yes"/>
      <point x="505" y="334"/>
      <point x="405" y="375"/>
      <point x="332" y="443" type="curve"/>
      <point x="1168" y="1164" type="line"/>
      <point x="1209" y="1078"/>
      <point x="1223" y="974"/>
      <point x="1205" y="862" type="curve" smooth="yes"/>
      <point x="1160" y="571"/>
      <point x="914" y="334"/>
    </contour>
  </outline>
</glyph>
<glyph name="uni2206" format="1">
  <advance width="921"/>
  <unicode hex="2206"/>
  <outline>
    <contour>
      <point x="337" y="1760" type="line"/>
      <point x="-123" y="0" type="line"/>
      <point x="730" y="0" type="line"/>
      <point x="828" y="1760" type="line"/>
    </contour>
    <contour>
      <point x="421" y="230" type="line"/>
      <point x="255" y="230" type="line"/>
      <point x="514" y="1451" type="line"/>
      <point x="546" y="1451" type="line"/>
    </contour>
  </outline>
</glyph>
<glyph name="minus" format="1">
  <advance width="637"/>
  <unicode hex="2212"/>
  <outline>
    <contour>
      <point x="180" y="741" type="line"/>
      <point x="144" y="509" type="line"/>
      <point x="660" y="509" type="line"/>
      <point x="696" y="741" type="line"/>
    </contour>
  </outline>
</glyph>
<glyph name="uni2219" format="1">
  <advance width="600"/>
  <unicode hex="2219"/>
  <outline>
    <contour>
      <point x="224" y="723" type="line"/>
      <point x="542" y="723" type="line"/>
      <point x="589" y="1021" type="line"/>
      <point x="271" y="1021" type="line"/>
    </contour>
  </outline>
</glyph>
<glyph name="infinity" format="1">
  <advance width="1171"/>
  <unicode hex="221E"/>
  <outline>
    <contour>
      <point x="874" y="1041"/>
      <point x="775" y="989"/>
      <point x="675" y="885" type="curve"/>
      <point x="605" y="980"/>
      <point x="523" y="1028"/>
      <point x="428" y="1028" type="curve" smooth="yes"/>
      <point x="258" y="1028"/>
      <point x="149" y="920"/>
      <point x="122" y="744" type="curve" smooth="yes"/>
      <point x="92" y="564"/>
      <point x="163" y="452"/>
      <point x="337" y="452" type="curve" smooth="yes"/>
      <point x="449" y="452"/>
      <point x="561" y="522"/>
      <point x="627" y="585" type="curve"/>
      <point x="673" y="512"/>
      <point x="752" y="439"/>
      <point x="877" y="439" type="curve" smooth="yes"/>
      <point x="1055" y="439"/>
      <point x="1166" y="559"/>
      <point x="1196" y="744" type="curve" smooth="yes"/>
      <point x="1224" y="927"/>
      <point x="1148" y="1041"/>
      <point x="972" y="1041" type="curve" smooth="yes"/>
    </contour>
    <contour>
      <point x="505" y="810"/>
      <point x="549" y="787"/>
      <point x="589" y="740" type="curve"/>
      <point x="533" y="693"/>
      <point x="481" y="669"/>
      <point x="434" y="669" type="curve" smooth="yes"/>
      <point x="375" y="669"/>
      <point x="349" y="693"/>
      <point x="356" y="740" type="curve" smooth="yes"/>
      <point x="364" y="787"/>
      <point x="398" y="810"/>
      <point x="457" y="810" type="curve" smooth="yes"/>
    </contour>
    <contour>
      <point x="940" y="811"/>
      <point x="968" y="787"/>
      <point x="960" y="740" type="curve" smooth="yes"/>
      <point x="953" y="693"/>
      <point x="917" y="669"/>
      <point x="854" y="669" type="curve" smooth="yes"/>
      <point x="800" y="669"/>
      <point x="753" y="693"/>
      <point x="713" y="740" type="curve"/>
      <point x="772" y="787"/>
      <point x="826" y="811"/>
      <point x="877" y="811" type="curve" smooth="yes"/>
    </contour>
  </outline>
</glyph>
<glyph name="approxequal" format="1">
  <advance width="1009"/>
  <unicode hex="2248"/>
  <outline>
    <contour>
      <point x="722" y="340" type="curve" smooth="yes"/>
      <point x="887" y="340"/>
      <point x="962" y="478"/>
      <point x="1039" y="625" type="curve"/>
      <point x="866" y="685" type="line"/>
      <point x="828" y="624"/>
      <point x="791" y="603"/>
      <point x="751" y="603" type="curve" smooth="yes"/>
      <point x="668" y="603"/>
      <point x="572" y="694"/>
      <point x="366" y="694" type="curve" smooth="yes"/>
      <point x="210" y="694"/>
      <point x="133" y="583"/>
      <point x="57" y="451" type="curve"/>
      <point x="206" y="365" type="line"/>
      <point x="244" y="421"/>
      <point x="280" y="440"/>
      <point x="319" y="440" type="curve" smooth="yes"/>
      <point x="407" y="440"/>
      <point x="559" y="340"/>
    </contour>
    <contour>
      <point x="797" y="810" type="curve" smooth="yes"/>
      <point x="962" y="810"/>
      <point x="1035" y="948"/>
      <point x="1114" y="1095" type="curve"/>
      <point x="941" y="1155" type="line"/>
      <point x="902" y="1094"/>
      <point x="866" y="1073"/>
      <point x="826" y="1073" type="curve" smooth="yes"/>
      <point x="743" y="1073"/>
      <point x="646" y="1164"/>
      <point x="440" y="1164" type="curve" smooth="yes"/>
      <point x="284" y="1164"/>
      <point x="206" y="1053"/>
      <point x="132" y="921" type="curve"/>
      <point x="281" y="835" type="line"/>
      <point x="317" y="891"/>
      <point x="354" y="910"/>
      <point x="393" y="910" type="curve" smooth="yes"/>
      <point x="481" y="910"/>
      <point x="634" y="810"/>
    </contour>
  </outline>
</glyph>
<glyph name="lessequal" format="1">
  <advance width="661"/>
  <unicode hex="2264"/>
  <outline>
    <contour>
      <point x="556" y="292" type="line"/>
      <point x="612" y="650" type="line"/>
      <point x="300" y="841" type="line"/>
      <point x="672" y="1033" type="line"/>
      <point x="729" y="1392" type="line"/>
      <point x="105" y="1051" type="line"/>
      <point x="40" y="637" type="line"/>
    </contour>
    <contour>
      <point x="-34" y="0" type="line"/>
      <point x="482" y="0" type="line"/>
      <point x="519" y="232" type="line"/>
      <point x="3" y="232" type="line"/>
    </contour>
  </outline>
</glyph>
<glyph name="lozenge" format="1">
  <advance width="921"/>
  <unicode hex="25CA"/>
  <outline>
    <contour>
      <point x="337" y="1436" type="line"/>
      <point x="40" y="713" type="line"/>
      <point x="111" y="0" type="line"/>
      <point x="602" y="0" type="line"/>
      <point x="893" y="713" type="line"/>
      <point x="828" y="1436" type="line"/>
    </contour>
    <contour>
      <point x="615" y="713" type="line"/>
      <point x="397" y="179" type="line"/>
      <point x="365" y="179" type="line"/>
      <point x="315" y="713" type="line"/>
      <point x="533" y="1247" type="line"/>
      <point x="565" y="1247" type="line"/>
    </contour>
  </outline>
</glyph>
